M48
; DRILL file {KiCad 5.1.8-db9833491~88~ubuntu20.04.1} date Sat Jan  2 16:42:35 2021
; FORMAT={-:-/ absolute / inch / decimal}
; #@! TF.CreationDate,2021-01-02T16:42:35-05:00
; #@! TF.GenerationSoftware,Kicad,Pcbnew,5.1.8-db9833491~88~ubuntu20.04.1
; #@! TF.FileFunction,Plated,1,2,PTH
FMAT,2
INCH
T1C0.0157
T2C0.0280
T3C0.0315
T4C0.0335
T5C0.0394
T6C0.0420
T7C0.0472
T8C0.0500
T9C0.0550
T10C0.0630
T11C0.0700
T12C0.1250
T13C0.1417
T14C0.1500
T15C0.1770
T16C0.1850
T17C0.1870
T18C0.2000
T19C0.2500
%
G90
G05
T1
X2.97Y-6.93
X6.89Y-8.0
X7.3Y-6.94
X7.31Y-8.0
T2
X14.325Y-8.275
X14.425Y-8.275
T3
X8.525Y-8.15
X8.525Y-8.2878
X2.7876Y-6.625
X3.575Y-6.625
X4.275Y-7.8
X4.275Y-7.9378
X6.7876Y-6.625
X7.575Y-6.625
T4
X7.175Y-8.5
X7.2734Y-8.5
X7.3719Y-8.5
X3.125Y-8.5
X3.2234Y-8.5
X3.3219Y-8.5
T5
X2.875Y-7.225
X2.875Y-7.425
X2.875Y-7.625
X3.075Y-7.125
X3.075Y-7.725
X3.275Y-7.125
X3.475Y-7.225
X3.475Y-7.425
X3.475Y-7.625
X14.17Y-1.3863
X14.17Y-1.78
X6.875Y-7.225
X6.875Y-7.425
X6.875Y-7.625
X7.075Y-7.125
X7.075Y-7.725
X7.275Y-7.125
X7.475Y-7.225
X7.475Y-7.425
X7.475Y-7.625
X12.275Y-6.875
X12.275Y-7.075
X12.375Y-6.675
X12.375Y-7.275
X12.575Y-6.675
X12.575Y-7.275
X12.775Y-6.675
X12.775Y-7.275
X12.875Y-7.075
T6
X6.9Y-2.7
X7.6Y-2.7
X11.575Y-2.7
X12.275Y-2.7
X2.825Y-2.75
X3.525Y-2.75
T7
X6.48Y-7.62
X6.48Y-8.22
X8.825Y-6.0
X8.825Y-6.2953
X2.425Y-6.925
X2.425Y-7.525
X14.59Y-1.39
X14.59Y-1.99
X2.9Y-6.2
X3.5Y-6.2
X8.025Y-7.8
X8.025Y-8.4
X14.325Y-7.225
X14.325Y-7.825
X6.875Y-6.2
X7.475Y-6.2
X11.3Y-7.75
X11.9Y-7.75
X11.3Y-6.875
X11.3Y-7.0719
X4.0Y-6.875
X4.0Y-7.475
X4.375Y-6.875
X4.375Y-7.475
X2.05Y-6.925
X2.05Y-7.525
X8.325Y-6.875
X8.325Y-7.475
X4.75Y-6.075
X4.75Y-6.3703
X2.425Y-7.8
X2.425Y-8.4
X10.275Y-3.0
X10.275Y-3.2953
X3.85Y-7.8
X3.85Y-8.4
X7.95Y-6.875
X7.95Y-7.475
T8
X14.85Y-2.65
X15.45Y-2.65
X16.15Y-2.65
X7.675Y-3.375
X7.675Y-5.725
X7.875Y-3.375
X7.875Y-5.725
X8.075Y-3.375
X8.075Y-5.725
X3.65Y-3.4
X3.65Y-5.75
X3.85Y-3.4
X3.85Y-5.75
X4.05Y-3.4
X4.05Y-5.75
T9
X4.9Y-8.2
X4.9Y-8.485
X5.451Y-8.2
X5.451Y-8.485
T10
X14.97Y-8.6
X15.07Y-7.9
X15.07Y-8.0
X15.07Y-8.1
X15.17Y-8.6
X15.73Y-4.6537
X15.73Y-5.01
X15.73Y-5.3663
T11
X10.6Y-4.25
X10.6Y-4.45
X10.6Y-5.05
X10.6Y-5.25
X10.6Y-5.45
X14.7Y-3.95
X14.7Y-4.15
X14.7Y-4.35
X14.7Y-4.95
X14.7Y-5.15
X14.7Y-5.35
X14.7Y-5.55
T12
X4.805Y-8.347
X5.841Y-8.347
T13
X16.1119Y-4.2226
X16.1119Y-5.7974
T14
X10.0Y-8.4
X1.4Y-8.4
X16.075Y-1.375
X10.3Y-1.375
X1.4Y-1.4
X16.05Y-8.4
T15
X5.805Y-4.525
X8.625Y-4.525
X1.78Y-4.55
X4.6Y-4.55
T16
X11.4Y-3.75
X11.4Y-5.75
X13.9Y-3.75
X13.9Y-5.75
T17
X6.2Y-2.0
X8.2Y-2.0
X10.775Y-2.0
X12.975Y-2.0
X2.125Y-2.05
X4.125Y-2.05
T18
X8.975Y-1.45
X9.725Y-1.45
X4.8Y-1.45
X5.55Y-1.45
T18
G00X7.275Y-3.425
M15
G01X7.075Y-3.425
M16
G05
G00X7.275Y-5.675
M15
G01X7.075Y-5.675
M16
G05
G00X3.25Y-3.45
M15
G01X3.05Y-3.45
M16
G05
G00X3.25Y-5.7
M15
G01X3.05Y-5.7
M16
G05
T19
G00X11.4Y-4.875
M15
G01X11.4Y-4.625
M16
G05
G00X13.9Y-4.875
M15
G01X13.9Y-4.625
M16
G05
T0
M30
