%TF.GenerationSoftware,KiCad,Pcbnew,5.1.8-db9833491~88~ubuntu20.04.1*%
%TF.CreationDate,2021-01-02T16:42:33-05:00*%
%TF.ProjectId,amp,616d702e-6b69-4636-9164-5f7063625858,rev?*%
%TF.SameCoordinates,Original*%
%TF.FileFunction,Copper,L2,Bot*%
%TF.FilePolarity,Positive*%
%FSLAX46Y46*%
G04 Gerber Fmt 4.6, Leading zero omitted, Abs format (unit mm)*
G04 Created by KiCad (PCBNEW 5.1.8-db9833491~88~ubuntu20.04.1) date 2021-01-02 16:42:33*
%MOMM*%
%LPD*%
G01*
G04 APERTURE LIST*
%TA.AperFunction,ComponentPad*%
%ADD10C,6.350000*%
%TD*%
%TA.AperFunction,ComponentPad*%
%ADD11C,1.905000*%
%TD*%
%TA.AperFunction,ComponentPad*%
%ADD12O,12.700000X6.350000*%
%TD*%
%TA.AperFunction,ComponentPad*%
%ADD13O,3.000000X1.800000*%
%TD*%
%TA.AperFunction,ComponentPad*%
%ADD14C,5.000000*%
%TD*%
%TA.AperFunction,ComponentPad*%
%ADD15C,2.600000*%
%TD*%
%TA.AperFunction,ComponentPad*%
%ADD16O,8.890000X15.240000*%
%TD*%
%TA.AperFunction,ComponentPad*%
%ADD17C,2.540000*%
%TD*%
%TA.AperFunction,ComponentPad*%
%ADD18C,8.890000*%
%TD*%
%TA.AperFunction,ComponentPad*%
%ADD19C,1.778000*%
%TD*%
%TA.AperFunction,ComponentPad*%
%ADD20C,2.400000*%
%TD*%
%TA.AperFunction,ComponentPad*%
%ADD21R,2.400000X2.400000*%
%TD*%
%TA.AperFunction,ComponentPad*%
%ADD22C,1.600000*%
%TD*%
%TA.AperFunction,ComponentPad*%
%ADD23R,1.600000X1.600000*%
%TD*%
%TA.AperFunction,ComponentPad*%
%ADD24R,2.540000X2.540000*%
%TD*%
%TA.AperFunction,ComponentPad*%
%ADD25C,3.810000*%
%TD*%
%TA.AperFunction,ComponentPad*%
%ADD26O,1.600000X1.600000*%
%TD*%
%TA.AperFunction,ComponentPad*%
%ADD27C,2.000000*%
%TD*%
%TA.AperFunction,ComponentPad*%
%ADD28C,1.016000*%
%TD*%
%TA.AperFunction,ComponentPad*%
%ADD29O,2.400000X2.400000*%
%TD*%
%TA.AperFunction,ComponentPad*%
%ADD30C,1.200000*%
%TD*%
%TA.AperFunction,ViaPad*%
%ADD31C,0.800000*%
%TD*%
%TA.AperFunction,Conductor*%
%ADD32C,0.762000*%
%TD*%
%TA.AperFunction,Conductor*%
%ADD33C,1.270000*%
%TD*%
%TA.AperFunction,Conductor*%
%ADD34C,2.540000*%
%TD*%
%TA.AperFunction,Conductor*%
%ADD35C,1.905000*%
%TD*%
%TA.AperFunction,Conductor*%
%ADD36C,0.254000*%
%TD*%
%TA.AperFunction,Conductor*%
%ADD37C,0.100000*%
%TD*%
G04 APERTURE END LIST*
D10*
%TO.P,H6,1*%
%TO.N,Earth_Protective*%
X408305000Y-34925000D03*
%TD*%
%TO.P,H5,1*%
%TO.N,Earth_Protective*%
X407670000Y-213360000D03*
%TD*%
%TO.P,H4,1*%
%TO.N,Earth_Protective*%
X35560000Y-213360000D03*
%TD*%
%TO.P,H3,1*%
%TO.N,Earth_Protective*%
X261620000Y-34925000D03*
%TD*%
%TO.P,H2,1*%
%TO.N,Earth_Protective*%
X35560000Y-35560000D03*
%TD*%
%TO.P,H1,1*%
%TO.N,Earth_Protective*%
X254000000Y-213360000D03*
%TD*%
D11*
%TO.P,T2,6*%
%TO.N,Net-(LS2-Pad2)*%
X194945000Y-85725000D03*
%TO.P,T2,5*%
%TO.N,Net-(T2-Pad5)*%
X200025000Y-85725000D03*
%TO.P,T2,4*%
%TO.N,Net-(LS2-Pad1)*%
X205105000Y-85725000D03*
%TO.P,T2,3*%
%TO.N,Net-(T2-Pad3)*%
X205105000Y-145415000D03*
%TO.P,T2,2*%
%TO.N,Net-(T2-Pad2)*%
X200025000Y-145415000D03*
%TO.P,T2,1*%
%TO.N,VBUS*%
X194945000Y-145415000D03*
D12*
%TO.P,T2,13*%
%TO.N,N/C*%
X182245000Y-86995000D03*
%TO.P,T2,12*%
X182245000Y-144145000D03*
D10*
%TO.P,T2,11*%
X147447000Y-114935000D03*
%TO.P,T2,10*%
X219075000Y-114935000D03*
%TD*%
D11*
%TO.P,T1,6*%
%TO.N,Net-(LS1-Pad2)*%
X92710000Y-86360000D03*
%TO.P,T1,5*%
%TO.N,Net-(T1-Pad5)*%
X97790000Y-86360000D03*
%TO.P,T1,4*%
%TO.N,Net-(LS1-Pad1)*%
X102870000Y-86360000D03*
%TO.P,T1,3*%
%TO.N,Net-(T1-Pad3)*%
X102870000Y-146050000D03*
%TO.P,T1,2*%
%TO.N,Net-(T1-Pad2)*%
X97790000Y-146050000D03*
%TO.P,T1,1*%
%TO.N,HT*%
X92710000Y-146050000D03*
D12*
%TO.P,T1,13*%
%TO.N,N/C*%
X80010000Y-87630000D03*
%TO.P,T1,12*%
X80010000Y-144780000D03*
D10*
%TO.P,T1,11*%
X45212000Y-115570000D03*
%TO.P,T1,10*%
X116840000Y-115570000D03*
%TD*%
D13*
%TO.P,SW1,5*%
%TO.N,Earth_Protective*%
X385318000Y-218440000D03*
%TO.P,SW1,4*%
X380238000Y-218440000D03*
%TO.P,SW1,3*%
%TO.N,N/C*%
X382778000Y-200660000D03*
%TO.P,SW1,2*%
%TO.N,LINE*%
X382778000Y-203200000D03*
%TO.P,SW1,1*%
%TO.N,Net-(F1-Pad1)*%
X382778000Y-205740000D03*
%TD*%
D14*
%TO.P,J1,5*%
%TO.N,Earth_Protective*%
X409242000Y-107254000D03*
%TO.P,J1,4*%
X409242000Y-147254000D03*
D15*
%TO.P,J1,3*%
%TO.N,NEUT*%
X399542000Y-118204000D03*
%TO.P,J1,2*%
%TO.N,Earth_Protective*%
X399542000Y-127254000D03*
%TO.P,J1,1*%
%TO.N,/L*%
X399542000Y-136304000D03*
%TD*%
D16*
%TO.P,T3,26*%
%TO.N,N/C*%
X353060000Y-120650000D03*
%TO.P,T3,25*%
X289560000Y-120650000D03*
D17*
%TO.P,T3,7*%
%TO.N,Net-(T3-Pad7)*%
X373380000Y-125730000D03*
%TO.P,T3,6*%
%TO.N,Net-(T3-Pad6)*%
X373380000Y-130810000D03*
%TO.P,T3,5*%
%TO.N,Earth*%
X373380000Y-135890000D03*
%TO.P,T3,4*%
%TO.N,Net-(T3-Pad4)*%
X373380000Y-140970000D03*
%TO.P,T3,3*%
%TO.N,LINE*%
X373380000Y-100330000D03*
%TO.P,T3,2*%
%TO.N,Net-(T3-Pad2)*%
X373380000Y-105410000D03*
%TO.P,T3,1*%
%TO.N,NEUT*%
X373380000Y-110490000D03*
%TO.P,T3,12*%
%TO.N,Net-(R12-Pad1)*%
X269240000Y-107950000D03*
%TO.P,T3,11*%
%TO.N,Net-(R13-Pad1)*%
X269240000Y-113030000D03*
%TO.P,T3,10*%
%TO.N,Net-(T3-Pad10)*%
X269240000Y-128270000D03*
%TO.P,T3,9*%
%TO.N,Net-(T3-Pad9)*%
X269240000Y-133350000D03*
%TO.P,T3,8*%
%TO.N,Net-(R14-Pad1)*%
X269240000Y-138430000D03*
D18*
%TO.P,T3,23*%
%TO.N,N/C*%
X353060000Y-95250000D03*
%TO.P,T3,22*%
X289560000Y-95250000D03*
%TO.P,T3,21*%
X353060000Y-146050000D03*
%TO.P,T3,20*%
X289560000Y-146050000D03*
%TD*%
D10*
%TO.P,LS2,2*%
%TO.N,Net-(LS2-Pad2)*%
X227965000Y-36830000D03*
%TO.P,LS2,1*%
%TO.N,Net-(LS2-Pad1)*%
X247015000Y-36830000D03*
%TD*%
D19*
%TO.P,L1,2*%
%TO.N,Net-(C6-Pad1)*%
X311785000Y-68580000D03*
%TO.P,L1,1*%
%TO.N,Net-(C7-Pad1)*%
X294005000Y-68580000D03*
D10*
%TO.P,L1,4*%
%TO.N,N/C*%
X329565000Y-50800000D03*
%TO.P,L1,3*%
X273685000Y-50800000D03*
%TD*%
D19*
%TO.P,L2,2*%
%TO.N,HT*%
X89535000Y-69850000D03*
%TO.P,L2,1*%
%TO.N,Net-(C7-Pad1)*%
X71755000Y-69850000D03*
D10*
%TO.P,L2,4*%
%TO.N,N/C*%
X104775000Y-52070000D03*
%TO.P,L2,3*%
X53975000Y-52070000D03*
%TD*%
D19*
%TO.P,L3,2*%
%TO.N,VBUS*%
X193040000Y-68580000D03*
%TO.P,L3,1*%
%TO.N,Net-(C7-Pad1)*%
X175260000Y-68580000D03*
D10*
%TO.P,L3,4*%
%TO.N,N/C*%
X208280000Y-50800000D03*
%TO.P,L3,3*%
X157480000Y-50800000D03*
%TD*%
D20*
%TO.P,C6,2*%
%TO.N,Earth*%
X287020000Y-179625000D03*
D21*
%TO.P,C6,1*%
%TO.N,Net-(C6-Pad1)*%
X287020000Y-174625000D03*
%TD*%
D22*
%TO.P,C4,2*%
%TO.N,Earth*%
X216535000Y-210510000D03*
D23*
%TO.P,C4,1*%
%TO.N,Net-(C4-Pad1)*%
X216535000Y-207010000D03*
%TD*%
D17*
%TO.P,U3,9*%
%TO.N,N/C*%
X327025000Y-179705000D03*
%TO.P,U3,8*%
X324485000Y-184785000D03*
%TO.P,U3,7*%
%TO.N,Net-(T3-Pad4)*%
X319405000Y-184785000D03*
%TO.P,U3,6*%
%TO.N,N/C*%
X314325000Y-184785000D03*
%TO.P,U3,5*%
%TO.N,Net-(R14-Pad1)*%
X311785000Y-179705000D03*
%TO.P,U3,4*%
%TO.N,Net-(T3-Pad10)*%
X311785000Y-174625000D03*
%TO.P,U3,3*%
%TO.N,Net-(C6-Pad1)*%
X314325000Y-169545000D03*
%TO.P,U3,2*%
%TO.N,N/C*%
X319405000Y-169545000D03*
D24*
%TO.P,U3,1*%
%TO.N,Net-(T3-Pad7)*%
X324485000Y-169545000D03*
%TD*%
D25*
%TO.P,J2,6*%
%TO.N,Earth*%
X148361400Y-212013800D03*
%TO.P,J2,5*%
X122047000Y-212013800D03*
D11*
%TO.P,J2,4*%
X138455400Y-215519000D03*
%TO.P,J2,3*%
%TO.N,Net-(J2-Pad3)*%
X138455400Y-208280000D03*
%TO.P,J2,2*%
%TO.N,Earth*%
X124460000Y-215519000D03*
%TO.P,J2,1*%
%TO.N,Net-(J2-Pad1)*%
X124460000Y-208280000D03*
%TD*%
D22*
%TO.P,C1,1*%
%TO.N,Net-(C1-Pad1)*%
X90805000Y-168275000D03*
D26*
%TO.P,C1,2*%
%TO.N,Net-(C1-Pad2)*%
X70805000Y-168275000D03*
%TD*%
D22*
%TO.P,C2,2*%
%TO.N,Earth*%
X108585000Y-201620000D03*
D23*
%TO.P,C2,1*%
%TO.N,Net-(C2-Pad1)*%
X108585000Y-198120000D03*
%TD*%
D26*
%TO.P,C3,2*%
%TO.N,Net-(C3-Pad2)*%
X172405000Y-168275000D03*
D22*
%TO.P,C3,1*%
%TO.N,Net-(C3-Pad1)*%
X192405000Y-168275000D03*
%TD*%
D27*
%TO.P,C5,1*%
%TO.N,Earth*%
X359918000Y-45212000D03*
%TO.P,C5,2*%
%TO.N,Earth_Protective*%
X359918000Y-35212000D03*
%TD*%
D21*
%TO.P,C7,1*%
%TO.N,Net-(C7-Pad1)*%
X260985000Y-76200000D03*
D20*
%TO.P,C7,2*%
%TO.N,Earth*%
X260985000Y-83700000D03*
%TD*%
%TO.P,C8,2*%
%TO.N,Earth*%
X120650000Y-161805000D03*
D21*
%TO.P,C8,1*%
%TO.N,HT*%
X120650000Y-154305000D03*
%TD*%
%TO.P,C9,1*%
%TO.N,VBUS*%
X224155000Y-152400000D03*
D20*
%TO.P,C9,2*%
%TO.N,Earth*%
X224155000Y-159900000D03*
%TD*%
D11*
%TO.P,F1,1*%
%TO.N,Net-(F1-Pad1)*%
X377190000Y-67310000D03*
%TO.P,F1,2*%
%TO.N,/L*%
X392430000Y-67310000D03*
%TO.P,F1,3*%
%TO.N,N/C*%
X410210000Y-67310000D03*
%TD*%
D10*
%TO.P,LS1,1*%
%TO.N,Net-(LS1-Pad1)*%
X140970000Y-36830000D03*
%TO.P,LS1,2*%
%TO.N,Net-(LS1-Pad2)*%
X121920000Y-36830000D03*
%TD*%
D28*
%TO.P,NE1,1*%
%TO.N,Net-(NE1-Pad1)*%
X363855000Y-210185000D03*
%TO.P,NE1,2*%
%TO.N,LINE*%
X366395000Y-210185000D03*
%TD*%
D20*
%TO.P,R1,1*%
%TO.N,Net-(R1-Pad1)*%
X61595000Y-198120000D03*
D29*
%TO.P,R1,2*%
%TO.N,Earth*%
X61595000Y-213360000D03*
%TD*%
%TO.P,R2,2*%
%TO.N,Net-(C1-Pad2)*%
X73660000Y-157480000D03*
D20*
%TO.P,R2,1*%
%TO.N,HT*%
X88900000Y-157480000D03*
%TD*%
%TO.P,R3,1*%
%TO.N,Net-(C1-Pad1)*%
X111125000Y-174625000D03*
D29*
%TO.P,R3,2*%
%TO.N,Earth*%
X111125000Y-189865000D03*
%TD*%
%TO.P,R4,2*%
%TO.N,Net-(C1-Pad1)*%
X101600000Y-174625000D03*
D20*
%TO.P,R4,1*%
%TO.N,Net-(R4-Pad1)*%
X101600000Y-189865000D03*
%TD*%
%TO.P,R5,1*%
%TO.N,Net-(C2-Pad1)*%
X97790000Y-198120000D03*
D29*
%TO.P,R5,2*%
%TO.N,Earth*%
X97790000Y-213360000D03*
%TD*%
%TO.P,R6,2*%
%TO.N,Earth*%
X164592000Y-208788000D03*
D20*
%TO.P,R6,1*%
%TO.N,Net-(R6-Pad1)*%
X164592000Y-193548000D03*
%TD*%
%TO.P,R7,1*%
%TO.N,VBUS*%
X189865000Y-157480000D03*
D29*
%TO.P,R7,2*%
%TO.N,Net-(C3-Pad2)*%
X174625000Y-157480000D03*
%TD*%
%TO.P,R8,2*%
%TO.N,Earth*%
X211455000Y-189865000D03*
D20*
%TO.P,R8,1*%
%TO.N,Net-(C3-Pad1)*%
X211455000Y-174625000D03*
%TD*%
%TO.P,R9,1*%
%TO.N,Net-(R9-Pad1)*%
X201930000Y-189865000D03*
D29*
%TO.P,R9,2*%
%TO.N,Net-(C3-Pad1)*%
X201930000Y-174625000D03*
%TD*%
%TO.P,R10,2*%
%TO.N,Earth*%
X203835000Y-213360000D03*
D20*
%TO.P,R10,1*%
%TO.N,Net-(C4-Pad1)*%
X203835000Y-198120000D03*
%TD*%
%TO.P,R11,1*%
%TO.N,Earth_Protective*%
X370586000Y-35306000D03*
D29*
%TO.P,R11,2*%
%TO.N,Earth*%
X370586000Y-50546000D03*
%TD*%
D20*
%TO.P,R12,1*%
%TO.N,Net-(R12-Pad1)*%
X61595000Y-175895000D03*
D29*
%TO.P,R12,2*%
%TO.N,Earth*%
X61595000Y-191135000D03*
%TD*%
%TO.P,R13,2*%
%TO.N,Earth*%
X52070000Y-191135000D03*
D20*
%TO.P,R13,1*%
%TO.N,Net-(R13-Pad1)*%
X52070000Y-175895000D03*
%TD*%
D29*
%TO.P,R14,2*%
%TO.N,Earth*%
X287020000Y-196850000D03*
D20*
%TO.P,R14,1*%
%TO.N,Net-(R14-Pad1)*%
X302260000Y-196850000D03*
%TD*%
%TO.P,R15,1*%
%TO.N,Net-(NE1-Pad1)*%
X363855000Y-198755000D03*
D29*
%TO.P,R15,2*%
%TO.N,NEUT*%
X363855000Y-183515000D03*
%TD*%
D30*
%TO.P,RV1,1*%
%TO.N,Earth*%
X79375000Y-215900000D03*
%TO.P,RV1,2*%
%TO.N,Net-(RV1-Pad2)*%
X81875000Y-215900000D03*
%TO.P,RV1,3*%
%TO.N,Net-(J2-Pad1)*%
X84375000Y-215900000D03*
%TD*%
%TO.P,RV2,3*%
%TO.N,Net-(J2-Pad3)*%
X187245000Y-215900000D03*
%TO.P,RV2,2*%
%TO.N,Net-(RV2-Pad2)*%
X184745000Y-215900000D03*
%TO.P,RV2,1*%
%TO.N,Earth*%
X182245000Y-215900000D03*
%TD*%
D24*
%TO.P,U1,1*%
%TO.N,Net-(T1-Pad2)*%
X88265000Y-193675000D03*
D17*
%TO.P,U1,2*%
%TO.N,N/C*%
X88265000Y-188595000D03*
%TO.P,U1,3*%
%TO.N,Net-(R4-Pad1)*%
X88265000Y-183515000D03*
%TO.P,U1,4*%
%TO.N,Net-(R12-Pad1)*%
X83185000Y-180975000D03*
%TO.P,U1,5*%
%TO.N,Net-(R13-Pad1)*%
X78105000Y-180975000D03*
%TO.P,U1,6*%
%TO.N,Net-(C1-Pad2)*%
X73025000Y-183515000D03*
%TO.P,U1,7*%
%TO.N,Net-(RV1-Pad2)*%
X73025000Y-188595000D03*
%TO.P,U1,8*%
%TO.N,Net-(R1-Pad1)*%
X73025000Y-193675000D03*
%TO.P,U1,9*%
%TO.N,Net-(C2-Pad1)*%
X78105000Y-196215000D03*
%TD*%
D24*
%TO.P,U2,1*%
%TO.N,Net-(T2-Pad2)*%
X189865000Y-193675000D03*
D17*
%TO.P,U2,2*%
%TO.N,N/C*%
X189865000Y-188595000D03*
%TO.P,U2,3*%
%TO.N,Net-(R9-Pad1)*%
X189865000Y-183515000D03*
%TO.P,U2,4*%
%TO.N,Net-(R13-Pad1)*%
X184785000Y-180975000D03*
%TO.P,U2,5*%
%TO.N,Net-(R12-Pad1)*%
X179705000Y-180975000D03*
%TO.P,U2,6*%
%TO.N,Net-(C3-Pad2)*%
X174625000Y-183515000D03*
%TO.P,U2,7*%
%TO.N,Net-(RV2-Pad2)*%
X174625000Y-188595000D03*
%TO.P,U2,8*%
%TO.N,Net-(R6-Pad1)*%
X174625000Y-193675000D03*
%TO.P,U2,9*%
%TO.N,Net-(C4-Pad1)*%
X179705000Y-196215000D03*
%TD*%
D31*
%TO.N,Net-(J2-Pad3)*%
X185674000Y-203200000D03*
X175006000Y-203200000D03*
%TO.N,Net-(R12-Pad1)*%
X75438000Y-176022000D03*
X185420000Y-176276000D03*
%TD*%
D32*
%TO.N,Earth*%
X182245000Y-215900000D02*
X182245000Y-213360000D01*
D33*
X79375000Y-215900000D02*
X79375000Y-212471000D01*
D34*
X120650000Y-161805000D02*
X146551000Y-161805000D01*
X146551000Y-161805000D02*
X216154000Y-92202000D01*
X216154000Y-92202000D02*
X252476000Y-92202000D01*
X252476000Y-92202000D02*
X261366000Y-83312000D01*
X261366000Y-83312000D02*
X261366000Y-83058000D01*
X224155000Y-159900000D02*
X229482000Y-159900000D01*
X229482000Y-159900000D02*
X240792000Y-148590000D01*
X240792000Y-148590000D02*
X240792000Y-114808000D01*
X240792000Y-114808000D02*
X260858000Y-94742000D01*
X260858000Y-94742000D02*
X260858000Y-84328000D01*
X287020000Y-179625000D02*
X305562000Y-161083000D01*
X305562000Y-161083000D02*
X305562000Y-112522000D01*
X305562000Y-112522000D02*
X296926000Y-103886000D01*
X296926000Y-103886000D02*
X281686000Y-103886000D01*
X281686000Y-103886000D02*
X261112000Y-83312000D01*
D35*
X348234000Y-135890000D02*
X295910000Y-83566000D01*
X295910000Y-83566000D02*
X261112000Y-83566000D01*
D32*
X122047000Y-212013800D02*
X125653800Y-212013800D01*
X125653800Y-212013800D02*
X126746000Y-213106000D01*
X126746000Y-213106000D02*
X124460000Y-215392000D01*
X124460000Y-215392000D02*
X124460000Y-215900000D01*
D33*
X359918000Y-135636000D02*
X360172000Y-135890000D01*
X359918000Y-45212000D02*
X359918000Y-135636000D01*
D35*
X360172000Y-135890000D02*
X348234000Y-135890000D01*
X373380000Y-135890000D02*
X360172000Y-135890000D01*
D33*
X138455400Y-215519000D02*
X138455400Y-212623400D01*
X124460000Y-215519000D02*
X121920000Y-212979000D01*
X121920000Y-212979000D02*
X121920000Y-212090000D01*
D34*
%TO.N,Net-(C7-Pad1)*%
X71755000Y-69850000D02*
X78867000Y-62738000D01*
X78867000Y-62738000D02*
X159766000Y-62738000D01*
X159766000Y-62738000D02*
X169672000Y-62738000D01*
X169672000Y-62738000D02*
X175260000Y-68326000D01*
X175260000Y-68580000D02*
X181864000Y-61976000D01*
X181864000Y-61976000D02*
X212090000Y-61976000D01*
X212090000Y-61976000D02*
X226314000Y-76200000D01*
X226314000Y-76200000D02*
X226568000Y-76454000D01*
X226568000Y-76454000D02*
X260858000Y-76454000D01*
X260985000Y-76200000D02*
X286512000Y-76200000D01*
X286512000Y-76200000D02*
X293878000Y-68834000D01*
D35*
%TO.N,NEUT*%
X399542000Y-118204000D02*
X380840000Y-118204000D01*
X380840000Y-118204000D02*
X373380000Y-110744000D01*
X373380000Y-110744000D02*
X373126000Y-110744000D01*
D32*
%TO.N,Net-(J2-Pad3)*%
X185674000Y-203200000D02*
X175006000Y-203200000D01*
D33*
%TO.N,Net-(R12-Pad1)*%
X83185000Y-180975000D02*
X85852000Y-178308000D01*
X85852000Y-178308000D02*
X94996000Y-178308000D01*
X94996000Y-178308000D02*
X100584000Y-183896000D01*
X100584000Y-183896000D02*
X121158000Y-183896000D01*
X121158000Y-183896000D02*
X166370000Y-183896000D01*
X166370000Y-183896000D02*
X170688000Y-179578000D01*
X170688000Y-179578000D02*
X178054000Y-179578000D01*
X178054000Y-179578000D02*
X179578000Y-181102000D01*
X75438000Y-176022000D02*
X61468000Y-176022000D01*
X185420000Y-176276000D02*
X191262000Y-176276000D01*
X191262000Y-176276000D02*
X192532000Y-177546000D01*
X192532000Y-177546000D02*
X209296000Y-177546000D01*
X209296000Y-177546000D02*
X247396000Y-177546000D01*
X247396000Y-177546000D02*
X247904000Y-177546000D01*
X247904000Y-177546000D02*
X251714000Y-173736000D01*
X251714000Y-173736000D02*
X251714000Y-153670000D01*
X251714000Y-153670000D02*
X251714000Y-125730000D01*
X251714000Y-125730000D02*
X269240000Y-108204000D01*
%TO.N,Net-(R13-Pad1)*%
X184785000Y-180975000D02*
X181356000Y-177546000D01*
X181356000Y-177546000D02*
X175514000Y-177546000D01*
X175514000Y-177546000D02*
X169672000Y-177546000D01*
X169672000Y-177546000D02*
X165354000Y-181864000D01*
X165354000Y-181864000D02*
X153670000Y-181864000D01*
X153670000Y-181864000D02*
X102362000Y-181864000D01*
X102362000Y-181864000D02*
X97028000Y-176530000D01*
X97028000Y-176530000D02*
X80518000Y-176530000D01*
X80518000Y-176530000D02*
X79756000Y-176530000D01*
X79756000Y-176530000D02*
X78232000Y-178054000D01*
X78232000Y-178054000D02*
X78232000Y-181102000D01*
X52070000Y-175895000D02*
X55245000Y-175895000D01*
X55245000Y-175895000D02*
X58928000Y-179578000D01*
X58928000Y-179578000D02*
X76962000Y-179578000D01*
X76962000Y-179578000D02*
X78232000Y-180848000D01*
X78232000Y-180848000D02*
X78740000Y-181356000D01*
X184785000Y-180975000D02*
X186436000Y-179324000D01*
X186436000Y-179324000D02*
X196088000Y-179324000D01*
X196088000Y-179324000D02*
X249428000Y-179324000D01*
X249428000Y-179324000D02*
X253746000Y-175006000D01*
X253746000Y-175006000D02*
X253746000Y-174049598D01*
X253746000Y-174049598D02*
X253746000Y-128524000D01*
X253746000Y-128524000D02*
X269240000Y-113030000D01*
%TO.N,Net-(R14-Pad1)*%
X311785000Y-179705000D02*
X302006000Y-189484000D01*
X302006000Y-189484000D02*
X277622000Y-189484000D01*
X277622000Y-189484000D02*
X269240000Y-181102000D01*
X269240000Y-181102000D02*
X269240000Y-138430000D01*
X302260000Y-189738000D02*
X302006000Y-189484000D01*
X302260000Y-196850000D02*
X302260000Y-189738000D01*
%TO.N,Net-(T3-Pad10)*%
X269240000Y-128270000D02*
X272288000Y-131318000D01*
X272288000Y-131318000D02*
X272288000Y-181102000D01*
X272288000Y-181102000D02*
X278638000Y-187452000D01*
X278638000Y-187452000D02*
X278892000Y-187198000D01*
X278892000Y-187198000D02*
X299466000Y-187198000D01*
X299466000Y-187198000D02*
X312166000Y-174498000D01*
D34*
%TO.N,Earth_Protective*%
X254000000Y-213360000D02*
X254000000Y-217678000D01*
X254000000Y-217678000D02*
X254254000Y-217932000D01*
X254000000Y-213360000D02*
X255524000Y-213360000D01*
X255524000Y-213360000D02*
X260350000Y-218186000D01*
X408305000Y-34925000D02*
X408305000Y-49403000D01*
X408305000Y-34925000D02*
X408813000Y-34925000D01*
X408813000Y-34925000D02*
X411988000Y-38100000D01*
X411988000Y-38100000D02*
X411988000Y-46228000D01*
D35*
X399542000Y-127254000D02*
X409448000Y-127254000D01*
%TD*%
D36*
%TO.N,Earth*%
X236728000Y-214249000D02*
X205430333Y-214249000D01*
X205508500Y-214112754D01*
X205623199Y-213771806D01*
X205506854Y-213487000D01*
X203962000Y-213487000D01*
X203962000Y-213507000D01*
X203708000Y-213507000D01*
X203708000Y-213487000D01*
X202163146Y-213487000D01*
X202046801Y-213771806D01*
X202161500Y-214112754D01*
X202239667Y-214249000D01*
X188368609Y-214249000D01*
X188190934Y-214130281D01*
X187827504Y-213979743D01*
X187441687Y-213903000D01*
X187048313Y-213903000D01*
X186662496Y-213979743D01*
X186299066Y-214130281D01*
X186121391Y-214249000D01*
X185868609Y-214249000D01*
X185690934Y-214130281D01*
X185327504Y-213979743D01*
X184941687Y-213903000D01*
X184548313Y-213903000D01*
X184162496Y-213979743D01*
X183799066Y-214130281D01*
X183621391Y-214249000D01*
X149573157Y-214249000D01*
X149756995Y-214150737D01*
X149961701Y-213793707D01*
X148361400Y-212193405D01*
X146761099Y-213793707D01*
X146965805Y-214150737D01*
X147154383Y-214249000D01*
X139318895Y-214249000D01*
X139287302Y-214157919D01*
X139005784Y-214021776D01*
X138703114Y-213943171D01*
X138390926Y-213925123D01*
X138081215Y-213968328D01*
X137785884Y-214071123D01*
X137623498Y-214157919D01*
X137591905Y-214249000D01*
X134112000Y-214249000D01*
X134112000Y-212040623D01*
X145809251Y-212040623D01*
X145863523Y-212538008D01*
X146013787Y-213015247D01*
X146224463Y-213409395D01*
X146581493Y-213614101D01*
X148181795Y-212013800D01*
X148541005Y-212013800D01*
X150141307Y-213614101D01*
X150498337Y-213409395D01*
X150729543Y-212965683D01*
X150734648Y-212948194D01*
X202046801Y-212948194D01*
X202163146Y-213233000D01*
X203708000Y-213233000D01*
X203708000Y-211688568D01*
X203962000Y-211688568D01*
X203962000Y-213233000D01*
X205506854Y-213233000D01*
X205623199Y-212948194D01*
X205508500Y-212607246D01*
X205329489Y-212295226D01*
X205093046Y-212024125D01*
X204808257Y-211804361D01*
X204486066Y-211644379D01*
X204246805Y-211571805D01*
X203962000Y-211688568D01*
X203708000Y-211688568D01*
X203423195Y-211571805D01*
X203183934Y-211644379D01*
X202861743Y-211804361D01*
X202576954Y-212024125D01*
X202340511Y-212295226D01*
X202161500Y-212607246D01*
X202046801Y-212948194D01*
X150734648Y-212948194D01*
X150869743Y-212485391D01*
X150913549Y-211986977D01*
X150860708Y-211502702D01*
X215721903Y-211502702D01*
X215793486Y-211746671D01*
X216048996Y-211867571D01*
X216323184Y-211936300D01*
X216605512Y-211950217D01*
X216885130Y-211908787D01*
X217151292Y-211813603D01*
X217276514Y-211746671D01*
X217348097Y-211502702D01*
X216535000Y-210689605D01*
X215721903Y-211502702D01*
X150860708Y-211502702D01*
X150859277Y-211489592D01*
X150709013Y-211012353D01*
X150498337Y-210618205D01*
X150432597Y-210580512D01*
X215094783Y-210580512D01*
X215136213Y-210860130D01*
X215231397Y-211126292D01*
X215298329Y-211251514D01*
X215542298Y-211323097D01*
X216355395Y-210510000D01*
X216714605Y-210510000D01*
X217527702Y-211323097D01*
X217771671Y-211251514D01*
X217892571Y-210996004D01*
X217961300Y-210721816D01*
X217975217Y-210439488D01*
X217933787Y-210159870D01*
X217838603Y-209893708D01*
X217771671Y-209768486D01*
X217527702Y-209696903D01*
X216714605Y-210510000D01*
X216355395Y-210510000D01*
X215542298Y-209696903D01*
X215298329Y-209768486D01*
X215177429Y-210023996D01*
X215108700Y-210298184D01*
X215094783Y-210580512D01*
X150432597Y-210580512D01*
X150141307Y-210413499D01*
X148541005Y-212013800D01*
X148181795Y-212013800D01*
X146581493Y-210413499D01*
X146224463Y-210618205D01*
X145993257Y-211061917D01*
X145853057Y-211542209D01*
X145809251Y-212040623D01*
X134112000Y-212040623D01*
X134112000Y-208048594D01*
X136105900Y-208048594D01*
X136105900Y-208511406D01*
X136196190Y-208965324D01*
X136373300Y-209392905D01*
X136630424Y-209777719D01*
X136957681Y-210104976D01*
X137342495Y-210362100D01*
X137770076Y-210539210D01*
X138223994Y-210629500D01*
X138686806Y-210629500D01*
X139140724Y-210539210D01*
X139568305Y-210362100D01*
X139760180Y-210233893D01*
X146761099Y-210233893D01*
X148361400Y-211834195D01*
X149961701Y-210233893D01*
X149756995Y-209876863D01*
X149313283Y-209645657D01*
X148832991Y-209505457D01*
X148334577Y-209461651D01*
X147837192Y-209515923D01*
X147359953Y-209666187D01*
X146965805Y-209876863D01*
X146761099Y-210233893D01*
X139760180Y-210233893D01*
X139953119Y-210104976D01*
X140280376Y-209777719D01*
X140537500Y-209392905D01*
X140617484Y-209199806D01*
X162803801Y-209199806D01*
X162918500Y-209540754D01*
X163097511Y-209852774D01*
X163333954Y-210123875D01*
X163618743Y-210343639D01*
X163940934Y-210503621D01*
X164180195Y-210576195D01*
X164465000Y-210459432D01*
X164465000Y-208915000D01*
X164719000Y-208915000D01*
X164719000Y-210459432D01*
X165003805Y-210576195D01*
X165243066Y-210503621D01*
X165565257Y-210343639D01*
X165850046Y-210123875D01*
X166086489Y-209852774D01*
X166265500Y-209540754D01*
X166380199Y-209199806D01*
X166263854Y-208915000D01*
X164719000Y-208915000D01*
X164465000Y-208915000D01*
X162920146Y-208915000D01*
X162803801Y-209199806D01*
X140617484Y-209199806D01*
X140714610Y-208965324D01*
X140804900Y-208511406D01*
X140804900Y-208376194D01*
X162803801Y-208376194D01*
X162920146Y-208661000D01*
X164465000Y-208661000D01*
X164465000Y-207116568D01*
X164719000Y-207116568D01*
X164719000Y-208661000D01*
X166263854Y-208661000D01*
X166380199Y-208376194D01*
X166265500Y-208035246D01*
X166086489Y-207723226D01*
X165850046Y-207452125D01*
X165565257Y-207232361D01*
X165243066Y-207072379D01*
X165003805Y-206999805D01*
X164719000Y-207116568D01*
X164465000Y-207116568D01*
X164180195Y-206999805D01*
X163940934Y-207072379D01*
X163618743Y-207232361D01*
X163333954Y-207452125D01*
X163097511Y-207723226D01*
X162918500Y-208035246D01*
X162803801Y-208376194D01*
X140804900Y-208376194D01*
X140804900Y-208048594D01*
X140714610Y-207594676D01*
X140537500Y-207167095D01*
X140280376Y-206782281D01*
X139953119Y-206455024D01*
X139586414Y-206210000D01*
X214331241Y-206210000D01*
X214331241Y-207810000D01*
X214358214Y-208083860D01*
X214438096Y-208347195D01*
X214567817Y-208589887D01*
X214742392Y-208802608D01*
X214955113Y-208977183D01*
X215197805Y-209106904D01*
X215461140Y-209186786D01*
X215735000Y-209213759D01*
X215904935Y-209213759D01*
X215793486Y-209273329D01*
X215721903Y-209517298D01*
X216535000Y-210330395D01*
X217348097Y-209517298D01*
X217276514Y-209273329D01*
X217150619Y-209213759D01*
X217335000Y-209213759D01*
X217608860Y-209186786D01*
X217872195Y-209106904D01*
X218114887Y-208977183D01*
X218327608Y-208802608D01*
X218502183Y-208589887D01*
X218631904Y-208347195D01*
X218711786Y-208083860D01*
X218738759Y-207810000D01*
X218738759Y-206210000D01*
X218711786Y-205936140D01*
X218631904Y-205672805D01*
X218502183Y-205430113D01*
X218327608Y-205217392D01*
X218114887Y-205042817D01*
X217872195Y-204913096D01*
X217608860Y-204833214D01*
X217335000Y-204806241D01*
X215735000Y-204806241D01*
X215461140Y-204833214D01*
X215197805Y-204913096D01*
X214955113Y-205042817D01*
X214742392Y-205217392D01*
X214567817Y-205430113D01*
X214438096Y-205672805D01*
X214358214Y-205936140D01*
X214331241Y-206210000D01*
X139586414Y-206210000D01*
X139568305Y-206197900D01*
X139140724Y-206020790D01*
X138686806Y-205930500D01*
X138223994Y-205930500D01*
X137770076Y-206020790D01*
X137342495Y-206197900D01*
X136957681Y-206455024D01*
X136630424Y-206782281D01*
X136373300Y-207167095D01*
X136196190Y-207594676D01*
X136105900Y-208048594D01*
X134112000Y-208048594D01*
X134112000Y-205867000D01*
X207645000Y-205867000D01*
X207669776Y-205864560D01*
X207693601Y-205857333D01*
X207715557Y-205845597D01*
X207734803Y-205829803D01*
X207750597Y-205810557D01*
X207762333Y-205788601D01*
X207769560Y-205764776D01*
X207772000Y-205740000D01*
X207772000Y-190276806D01*
X209666801Y-190276806D01*
X209781500Y-190617754D01*
X209960511Y-190929774D01*
X210196954Y-191200875D01*
X210481743Y-191420639D01*
X210803934Y-191580621D01*
X211043195Y-191653195D01*
X211328000Y-191536432D01*
X211328000Y-189992000D01*
X211582000Y-189992000D01*
X211582000Y-191536432D01*
X211866805Y-191653195D01*
X212106066Y-191580621D01*
X212428257Y-191420639D01*
X212713046Y-191200875D01*
X212949489Y-190929774D01*
X213128500Y-190617754D01*
X213243199Y-190276806D01*
X213126854Y-189992000D01*
X211582000Y-189992000D01*
X211328000Y-189992000D01*
X209783146Y-189992000D01*
X209666801Y-190276806D01*
X207772000Y-190276806D01*
X207772000Y-189453194D01*
X209666801Y-189453194D01*
X209783146Y-189738000D01*
X211328000Y-189738000D01*
X211328000Y-188193568D01*
X211582000Y-188193568D01*
X211582000Y-189738000D01*
X213126854Y-189738000D01*
X213243199Y-189453194D01*
X213128500Y-189112246D01*
X212949489Y-188800226D01*
X212713046Y-188529125D01*
X212428257Y-188309361D01*
X212106066Y-188149379D01*
X211866805Y-188076805D01*
X211582000Y-188193568D01*
X211328000Y-188193568D01*
X211043195Y-188076805D01*
X210803934Y-188149379D01*
X210481743Y-188309361D01*
X210196954Y-188529125D01*
X209960511Y-188800226D01*
X209781500Y-189112246D01*
X209666801Y-189453194D01*
X207772000Y-189453194D01*
X207772000Y-185547000D01*
X236728000Y-185547000D01*
X236728000Y-214249000D01*
%TA.AperFunction,Conductor*%
D37*
G36*
X236728000Y-214249000D02*
G01*
X205430333Y-214249000D01*
X205508500Y-214112754D01*
X205623199Y-213771806D01*
X205506854Y-213487000D01*
X203962000Y-213487000D01*
X203962000Y-213507000D01*
X203708000Y-213507000D01*
X203708000Y-213487000D01*
X202163146Y-213487000D01*
X202046801Y-213771806D01*
X202161500Y-214112754D01*
X202239667Y-214249000D01*
X188368609Y-214249000D01*
X188190934Y-214130281D01*
X187827504Y-213979743D01*
X187441687Y-213903000D01*
X187048313Y-213903000D01*
X186662496Y-213979743D01*
X186299066Y-214130281D01*
X186121391Y-214249000D01*
X185868609Y-214249000D01*
X185690934Y-214130281D01*
X185327504Y-213979743D01*
X184941687Y-213903000D01*
X184548313Y-213903000D01*
X184162496Y-213979743D01*
X183799066Y-214130281D01*
X183621391Y-214249000D01*
X149573157Y-214249000D01*
X149756995Y-214150737D01*
X149961701Y-213793707D01*
X148361400Y-212193405D01*
X146761099Y-213793707D01*
X146965805Y-214150737D01*
X147154383Y-214249000D01*
X139318895Y-214249000D01*
X139287302Y-214157919D01*
X139005784Y-214021776D01*
X138703114Y-213943171D01*
X138390926Y-213925123D01*
X138081215Y-213968328D01*
X137785884Y-214071123D01*
X137623498Y-214157919D01*
X137591905Y-214249000D01*
X134112000Y-214249000D01*
X134112000Y-212040623D01*
X145809251Y-212040623D01*
X145863523Y-212538008D01*
X146013787Y-213015247D01*
X146224463Y-213409395D01*
X146581493Y-213614101D01*
X148181795Y-212013800D01*
X148541005Y-212013800D01*
X150141307Y-213614101D01*
X150498337Y-213409395D01*
X150729543Y-212965683D01*
X150734648Y-212948194D01*
X202046801Y-212948194D01*
X202163146Y-213233000D01*
X203708000Y-213233000D01*
X203708000Y-211688568D01*
X203962000Y-211688568D01*
X203962000Y-213233000D01*
X205506854Y-213233000D01*
X205623199Y-212948194D01*
X205508500Y-212607246D01*
X205329489Y-212295226D01*
X205093046Y-212024125D01*
X204808257Y-211804361D01*
X204486066Y-211644379D01*
X204246805Y-211571805D01*
X203962000Y-211688568D01*
X203708000Y-211688568D01*
X203423195Y-211571805D01*
X203183934Y-211644379D01*
X202861743Y-211804361D01*
X202576954Y-212024125D01*
X202340511Y-212295226D01*
X202161500Y-212607246D01*
X202046801Y-212948194D01*
X150734648Y-212948194D01*
X150869743Y-212485391D01*
X150913549Y-211986977D01*
X150860708Y-211502702D01*
X215721903Y-211502702D01*
X215793486Y-211746671D01*
X216048996Y-211867571D01*
X216323184Y-211936300D01*
X216605512Y-211950217D01*
X216885130Y-211908787D01*
X217151292Y-211813603D01*
X217276514Y-211746671D01*
X217348097Y-211502702D01*
X216535000Y-210689605D01*
X215721903Y-211502702D01*
X150860708Y-211502702D01*
X150859277Y-211489592D01*
X150709013Y-211012353D01*
X150498337Y-210618205D01*
X150432597Y-210580512D01*
X215094783Y-210580512D01*
X215136213Y-210860130D01*
X215231397Y-211126292D01*
X215298329Y-211251514D01*
X215542298Y-211323097D01*
X216355395Y-210510000D01*
X216714605Y-210510000D01*
X217527702Y-211323097D01*
X217771671Y-211251514D01*
X217892571Y-210996004D01*
X217961300Y-210721816D01*
X217975217Y-210439488D01*
X217933787Y-210159870D01*
X217838603Y-209893708D01*
X217771671Y-209768486D01*
X217527702Y-209696903D01*
X216714605Y-210510000D01*
X216355395Y-210510000D01*
X215542298Y-209696903D01*
X215298329Y-209768486D01*
X215177429Y-210023996D01*
X215108700Y-210298184D01*
X215094783Y-210580512D01*
X150432597Y-210580512D01*
X150141307Y-210413499D01*
X148541005Y-212013800D01*
X148181795Y-212013800D01*
X146581493Y-210413499D01*
X146224463Y-210618205D01*
X145993257Y-211061917D01*
X145853057Y-211542209D01*
X145809251Y-212040623D01*
X134112000Y-212040623D01*
X134112000Y-208048594D01*
X136105900Y-208048594D01*
X136105900Y-208511406D01*
X136196190Y-208965324D01*
X136373300Y-209392905D01*
X136630424Y-209777719D01*
X136957681Y-210104976D01*
X137342495Y-210362100D01*
X137770076Y-210539210D01*
X138223994Y-210629500D01*
X138686806Y-210629500D01*
X139140724Y-210539210D01*
X139568305Y-210362100D01*
X139760180Y-210233893D01*
X146761099Y-210233893D01*
X148361400Y-211834195D01*
X149961701Y-210233893D01*
X149756995Y-209876863D01*
X149313283Y-209645657D01*
X148832991Y-209505457D01*
X148334577Y-209461651D01*
X147837192Y-209515923D01*
X147359953Y-209666187D01*
X146965805Y-209876863D01*
X146761099Y-210233893D01*
X139760180Y-210233893D01*
X139953119Y-210104976D01*
X140280376Y-209777719D01*
X140537500Y-209392905D01*
X140617484Y-209199806D01*
X162803801Y-209199806D01*
X162918500Y-209540754D01*
X163097511Y-209852774D01*
X163333954Y-210123875D01*
X163618743Y-210343639D01*
X163940934Y-210503621D01*
X164180195Y-210576195D01*
X164465000Y-210459432D01*
X164465000Y-208915000D01*
X164719000Y-208915000D01*
X164719000Y-210459432D01*
X165003805Y-210576195D01*
X165243066Y-210503621D01*
X165565257Y-210343639D01*
X165850046Y-210123875D01*
X166086489Y-209852774D01*
X166265500Y-209540754D01*
X166380199Y-209199806D01*
X166263854Y-208915000D01*
X164719000Y-208915000D01*
X164465000Y-208915000D01*
X162920146Y-208915000D01*
X162803801Y-209199806D01*
X140617484Y-209199806D01*
X140714610Y-208965324D01*
X140804900Y-208511406D01*
X140804900Y-208376194D01*
X162803801Y-208376194D01*
X162920146Y-208661000D01*
X164465000Y-208661000D01*
X164465000Y-207116568D01*
X164719000Y-207116568D01*
X164719000Y-208661000D01*
X166263854Y-208661000D01*
X166380199Y-208376194D01*
X166265500Y-208035246D01*
X166086489Y-207723226D01*
X165850046Y-207452125D01*
X165565257Y-207232361D01*
X165243066Y-207072379D01*
X165003805Y-206999805D01*
X164719000Y-207116568D01*
X164465000Y-207116568D01*
X164180195Y-206999805D01*
X163940934Y-207072379D01*
X163618743Y-207232361D01*
X163333954Y-207452125D01*
X163097511Y-207723226D01*
X162918500Y-208035246D01*
X162803801Y-208376194D01*
X140804900Y-208376194D01*
X140804900Y-208048594D01*
X140714610Y-207594676D01*
X140537500Y-207167095D01*
X140280376Y-206782281D01*
X139953119Y-206455024D01*
X139586414Y-206210000D01*
X214331241Y-206210000D01*
X214331241Y-207810000D01*
X214358214Y-208083860D01*
X214438096Y-208347195D01*
X214567817Y-208589887D01*
X214742392Y-208802608D01*
X214955113Y-208977183D01*
X215197805Y-209106904D01*
X215461140Y-209186786D01*
X215735000Y-209213759D01*
X215904935Y-209213759D01*
X215793486Y-209273329D01*
X215721903Y-209517298D01*
X216535000Y-210330395D01*
X217348097Y-209517298D01*
X217276514Y-209273329D01*
X217150619Y-209213759D01*
X217335000Y-209213759D01*
X217608860Y-209186786D01*
X217872195Y-209106904D01*
X218114887Y-208977183D01*
X218327608Y-208802608D01*
X218502183Y-208589887D01*
X218631904Y-208347195D01*
X218711786Y-208083860D01*
X218738759Y-207810000D01*
X218738759Y-206210000D01*
X218711786Y-205936140D01*
X218631904Y-205672805D01*
X218502183Y-205430113D01*
X218327608Y-205217392D01*
X218114887Y-205042817D01*
X217872195Y-204913096D01*
X217608860Y-204833214D01*
X217335000Y-204806241D01*
X215735000Y-204806241D01*
X215461140Y-204833214D01*
X215197805Y-204913096D01*
X214955113Y-205042817D01*
X214742392Y-205217392D01*
X214567817Y-205430113D01*
X214438096Y-205672805D01*
X214358214Y-205936140D01*
X214331241Y-206210000D01*
X139586414Y-206210000D01*
X139568305Y-206197900D01*
X139140724Y-206020790D01*
X138686806Y-205930500D01*
X138223994Y-205930500D01*
X137770076Y-206020790D01*
X137342495Y-206197900D01*
X136957681Y-206455024D01*
X136630424Y-206782281D01*
X136373300Y-207167095D01*
X136196190Y-207594676D01*
X136105900Y-208048594D01*
X134112000Y-208048594D01*
X134112000Y-205867000D01*
X207645000Y-205867000D01*
X207669776Y-205864560D01*
X207693601Y-205857333D01*
X207715557Y-205845597D01*
X207734803Y-205829803D01*
X207750597Y-205810557D01*
X207762333Y-205788601D01*
X207769560Y-205764776D01*
X207772000Y-205740000D01*
X207772000Y-190276806D01*
X209666801Y-190276806D01*
X209781500Y-190617754D01*
X209960511Y-190929774D01*
X210196954Y-191200875D01*
X210481743Y-191420639D01*
X210803934Y-191580621D01*
X211043195Y-191653195D01*
X211328000Y-191536432D01*
X211328000Y-189992000D01*
X211582000Y-189992000D01*
X211582000Y-191536432D01*
X211866805Y-191653195D01*
X212106066Y-191580621D01*
X212428257Y-191420639D01*
X212713046Y-191200875D01*
X212949489Y-190929774D01*
X213128500Y-190617754D01*
X213243199Y-190276806D01*
X213126854Y-189992000D01*
X211582000Y-189992000D01*
X211328000Y-189992000D01*
X209783146Y-189992000D01*
X209666801Y-190276806D01*
X207772000Y-190276806D01*
X207772000Y-189453194D01*
X209666801Y-189453194D01*
X209783146Y-189738000D01*
X211328000Y-189738000D01*
X211328000Y-188193568D01*
X211582000Y-188193568D01*
X211582000Y-189738000D01*
X213126854Y-189738000D01*
X213243199Y-189453194D01*
X213128500Y-189112246D01*
X212949489Y-188800226D01*
X212713046Y-188529125D01*
X212428257Y-188309361D01*
X212106066Y-188149379D01*
X211866805Y-188076805D01*
X211582000Y-188193568D01*
X211328000Y-188193568D01*
X211043195Y-188076805D01*
X210803934Y-188149379D01*
X210481743Y-188309361D01*
X210196954Y-188529125D01*
X209960511Y-188800226D01*
X209781500Y-189112246D01*
X209666801Y-189453194D01*
X207772000Y-189453194D01*
X207772000Y-185547000D01*
X236728000Y-185547000D01*
X236728000Y-214249000D01*
G37*
%TD.AperFunction*%
%TD*%
D36*
%TO.N,Earth*%
X128778000Y-214249000D02*
X125323495Y-214249000D01*
X125291902Y-214157919D01*
X125010384Y-214021776D01*
X124707714Y-213943171D01*
X124395526Y-213925123D01*
X124085815Y-213968328D01*
X123790484Y-214071123D01*
X123628098Y-214157919D01*
X123596505Y-214249000D01*
X123258757Y-214249000D01*
X123442595Y-214150737D01*
X123647301Y-213793707D01*
X122047000Y-212193405D01*
X120446699Y-213793707D01*
X120651405Y-214150737D01*
X120839983Y-214249000D01*
X99385333Y-214249000D01*
X99463500Y-214112754D01*
X99578199Y-213771806D01*
X99461854Y-213487000D01*
X97917000Y-213487000D01*
X97917000Y-213507000D01*
X97663000Y-213507000D01*
X97663000Y-213487000D01*
X96118146Y-213487000D01*
X96001801Y-213771806D01*
X96116500Y-214112754D01*
X96194667Y-214249000D01*
X85498609Y-214249000D01*
X85320934Y-214130281D01*
X84957504Y-213979743D01*
X84571687Y-213903000D01*
X84178313Y-213903000D01*
X83792496Y-213979743D01*
X83429066Y-214130281D01*
X83251391Y-214249000D01*
X82998609Y-214249000D01*
X82820934Y-214130281D01*
X82457504Y-213979743D01*
X82071687Y-213903000D01*
X81678313Y-213903000D01*
X81292496Y-213979743D01*
X80929066Y-214130281D01*
X80751391Y-214249000D01*
X63190333Y-214249000D01*
X63268500Y-214112754D01*
X63383199Y-213771806D01*
X63266854Y-213487000D01*
X61722000Y-213487000D01*
X61722000Y-213507000D01*
X61468000Y-213507000D01*
X61468000Y-213487000D01*
X59923146Y-213487000D01*
X59806801Y-213771806D01*
X59921500Y-214112754D01*
X59999667Y-214249000D01*
X44577000Y-214249000D01*
X44577000Y-212948194D01*
X59806801Y-212948194D01*
X59923146Y-213233000D01*
X61468000Y-213233000D01*
X61468000Y-211688568D01*
X61722000Y-211688568D01*
X61722000Y-213233000D01*
X63266854Y-213233000D01*
X63383199Y-212948194D01*
X96001801Y-212948194D01*
X96118146Y-213233000D01*
X97663000Y-213233000D01*
X97663000Y-211688568D01*
X97917000Y-211688568D01*
X97917000Y-213233000D01*
X99461854Y-213233000D01*
X99578199Y-212948194D01*
X99463500Y-212607246D01*
X99284489Y-212295226D01*
X99062435Y-212040623D01*
X119494851Y-212040623D01*
X119549123Y-212538008D01*
X119699387Y-213015247D01*
X119910063Y-213409395D01*
X120267093Y-213614101D01*
X121867395Y-212013800D01*
X120267093Y-210413499D01*
X119910063Y-210618205D01*
X119678857Y-211061917D01*
X119538657Y-211542209D01*
X119494851Y-212040623D01*
X99062435Y-212040623D01*
X99048046Y-212024125D01*
X98763257Y-211804361D01*
X98441066Y-211644379D01*
X98201805Y-211571805D01*
X97917000Y-211688568D01*
X97663000Y-211688568D01*
X97378195Y-211571805D01*
X97138934Y-211644379D01*
X96816743Y-211804361D01*
X96531954Y-212024125D01*
X96295511Y-212295226D01*
X96116500Y-212607246D01*
X96001801Y-212948194D01*
X63383199Y-212948194D01*
X63268500Y-212607246D01*
X63089489Y-212295226D01*
X62853046Y-212024125D01*
X62568257Y-211804361D01*
X62246066Y-211644379D01*
X62006805Y-211571805D01*
X61722000Y-211688568D01*
X61468000Y-211688568D01*
X61183195Y-211571805D01*
X60943934Y-211644379D01*
X60621743Y-211804361D01*
X60336954Y-212024125D01*
X60100511Y-212295226D01*
X59921500Y-212607246D01*
X59806801Y-212948194D01*
X44577000Y-212948194D01*
X44577000Y-210233893D01*
X120446699Y-210233893D01*
X122047000Y-211834195D01*
X122061142Y-211820052D01*
X122240748Y-211999658D01*
X122226605Y-212013800D01*
X123826907Y-213614101D01*
X124183937Y-213409395D01*
X124415143Y-212965683D01*
X124555343Y-212485391D01*
X124599149Y-211986977D01*
X124544877Y-211489592D01*
X124394613Y-211012353D01*
X124185380Y-210620904D01*
X124228594Y-210629500D01*
X124691406Y-210629500D01*
X125145324Y-210539210D01*
X125572905Y-210362100D01*
X125957719Y-210104976D01*
X126284976Y-209777719D01*
X126542100Y-209392905D01*
X126719210Y-208965324D01*
X126809500Y-208511406D01*
X126809500Y-208048594D01*
X126719210Y-207594676D01*
X126542100Y-207167095D01*
X126284976Y-206782281D01*
X125957719Y-206455024D01*
X125572905Y-206197900D01*
X125145324Y-206020790D01*
X124691406Y-205930500D01*
X124228594Y-205930500D01*
X123774676Y-206020790D01*
X123347095Y-206197900D01*
X122962281Y-206455024D01*
X122635024Y-206782281D01*
X122377900Y-207167095D01*
X122200790Y-207594676D01*
X122110500Y-208048594D01*
X122110500Y-208511406D01*
X122200790Y-208965324D01*
X122377900Y-209392905D01*
X122449019Y-209499342D01*
X122020177Y-209461651D01*
X121522792Y-209515923D01*
X121045553Y-209666187D01*
X120651405Y-209876863D01*
X120446699Y-210233893D01*
X44577000Y-210233893D01*
X44577000Y-197864218D01*
X58998000Y-197864218D01*
X58998000Y-198375782D01*
X59097801Y-198877517D01*
X59293568Y-199350141D01*
X59577778Y-199775491D01*
X59939509Y-200137222D01*
X60364859Y-200421432D01*
X60837483Y-200617199D01*
X61339218Y-200717000D01*
X61850782Y-200717000D01*
X62352517Y-200617199D01*
X62825141Y-200421432D01*
X63250491Y-200137222D01*
X63612222Y-199775491D01*
X63896432Y-199350141D01*
X64092199Y-198877517D01*
X64192000Y-198375782D01*
X64192000Y-197864218D01*
X64092199Y-197362483D01*
X63896432Y-196889859D01*
X63612222Y-196464509D01*
X63250491Y-196102778D01*
X62825141Y-195818568D01*
X62352517Y-195622801D01*
X61850782Y-195523000D01*
X61339218Y-195523000D01*
X60837483Y-195622801D01*
X60364859Y-195818568D01*
X59939509Y-196102778D01*
X59577778Y-196464509D01*
X59293568Y-196889859D01*
X59097801Y-197362483D01*
X58998000Y-197864218D01*
X44577000Y-197864218D01*
X44577000Y-191546806D01*
X50281801Y-191546806D01*
X50396500Y-191887754D01*
X50575511Y-192199774D01*
X50811954Y-192470875D01*
X51096743Y-192690639D01*
X51418934Y-192850621D01*
X51658195Y-192923195D01*
X51943000Y-192806432D01*
X51943000Y-191262000D01*
X52197000Y-191262000D01*
X52197000Y-192806432D01*
X52481805Y-192923195D01*
X52721066Y-192850621D01*
X53043257Y-192690639D01*
X53328046Y-192470875D01*
X53564489Y-192199774D01*
X53743500Y-191887754D01*
X53858199Y-191546806D01*
X59806801Y-191546806D01*
X59921500Y-191887754D01*
X60100511Y-192199774D01*
X60336954Y-192470875D01*
X60621743Y-192690639D01*
X60943934Y-192850621D01*
X61183195Y-192923195D01*
X61468000Y-192806432D01*
X61468000Y-191262000D01*
X61722000Y-191262000D01*
X61722000Y-192806432D01*
X62006805Y-192923195D01*
X62246066Y-192850621D01*
X62568257Y-192690639D01*
X62853046Y-192470875D01*
X63089489Y-192199774D01*
X63268500Y-191887754D01*
X63383199Y-191546806D01*
X63266854Y-191262000D01*
X61722000Y-191262000D01*
X61468000Y-191262000D01*
X59923146Y-191262000D01*
X59806801Y-191546806D01*
X53858199Y-191546806D01*
X53741854Y-191262000D01*
X52197000Y-191262000D01*
X51943000Y-191262000D01*
X50398146Y-191262000D01*
X50281801Y-191546806D01*
X44577000Y-191546806D01*
X44577000Y-190723194D01*
X50281801Y-190723194D01*
X50398146Y-191008000D01*
X51943000Y-191008000D01*
X51943000Y-189463568D01*
X52197000Y-189463568D01*
X52197000Y-191008000D01*
X53741854Y-191008000D01*
X53858199Y-190723194D01*
X59806801Y-190723194D01*
X59923146Y-191008000D01*
X61468000Y-191008000D01*
X61468000Y-189463568D01*
X61722000Y-189463568D01*
X61722000Y-191008000D01*
X63266854Y-191008000D01*
X63383199Y-190723194D01*
X63268500Y-190382246D01*
X63089489Y-190070226D01*
X62853046Y-189799125D01*
X62568257Y-189579361D01*
X62246066Y-189419379D01*
X62006805Y-189346805D01*
X61722000Y-189463568D01*
X61468000Y-189463568D01*
X61183195Y-189346805D01*
X60943934Y-189419379D01*
X60621743Y-189579361D01*
X60336954Y-189799125D01*
X60100511Y-190070226D01*
X59921500Y-190382246D01*
X59806801Y-190723194D01*
X53858199Y-190723194D01*
X53743500Y-190382246D01*
X53564489Y-190070226D01*
X53328046Y-189799125D01*
X53043257Y-189579361D01*
X52721066Y-189419379D01*
X52481805Y-189346805D01*
X52197000Y-189463568D01*
X51943000Y-189463568D01*
X51658195Y-189346805D01*
X51418934Y-189419379D01*
X51096743Y-189579361D01*
X50811954Y-189799125D01*
X50575511Y-190070226D01*
X50396500Y-190382246D01*
X50281801Y-190723194D01*
X44577000Y-190723194D01*
X44577000Y-188722000D01*
X65278000Y-188722000D01*
X65278000Y-208280000D01*
X65280440Y-208304776D01*
X65287667Y-208328601D01*
X65299403Y-208350557D01*
X65315197Y-208369803D01*
X65334443Y-208385597D01*
X65356399Y-208397333D01*
X65380224Y-208404560D01*
X65405000Y-208407000D01*
X106680000Y-208407000D01*
X106704776Y-208404560D01*
X106728601Y-208397333D01*
X106750557Y-208385597D01*
X106769803Y-208369803D01*
X106785597Y-208350557D01*
X106797333Y-208328601D01*
X106804560Y-208304776D01*
X106807000Y-208280000D01*
X106807000Y-202612702D01*
X107771903Y-202612702D01*
X107843486Y-202856671D01*
X108098996Y-202977571D01*
X108373184Y-203046300D01*
X108655512Y-203060217D01*
X108935130Y-203018787D01*
X109201292Y-202923603D01*
X109326514Y-202856671D01*
X109398097Y-202612702D01*
X108585000Y-201799605D01*
X107771903Y-202612702D01*
X106807000Y-202612702D01*
X106807000Y-201690512D01*
X107144783Y-201690512D01*
X107186213Y-201970130D01*
X107281397Y-202236292D01*
X107348329Y-202361514D01*
X107592298Y-202433097D01*
X108405395Y-201620000D01*
X108764605Y-201620000D01*
X109577702Y-202433097D01*
X109821671Y-202361514D01*
X109942571Y-202106004D01*
X110011300Y-201831816D01*
X110025217Y-201549488D01*
X109983787Y-201269870D01*
X109888603Y-201003708D01*
X109821671Y-200878486D01*
X109577702Y-200806903D01*
X108764605Y-201620000D01*
X108405395Y-201620000D01*
X107592298Y-200806903D01*
X107348329Y-200878486D01*
X107227429Y-201133996D01*
X107158700Y-201408184D01*
X107144783Y-201690512D01*
X106807000Y-201690512D01*
X106807000Y-199924596D01*
X107005113Y-200087183D01*
X107247805Y-200216904D01*
X107511140Y-200296786D01*
X107785000Y-200323759D01*
X107954935Y-200323759D01*
X107843486Y-200383329D01*
X107771903Y-200627298D01*
X108585000Y-201440395D01*
X109398097Y-200627298D01*
X109326514Y-200383329D01*
X109200619Y-200323759D01*
X109385000Y-200323759D01*
X109658860Y-200296786D01*
X109922195Y-200216904D01*
X110164887Y-200087183D01*
X110377608Y-199912608D01*
X110552183Y-199699887D01*
X110681904Y-199457195D01*
X110761786Y-199193860D01*
X110788759Y-198920000D01*
X110788759Y-197320000D01*
X110761786Y-197046140D01*
X110681904Y-196782805D01*
X110552183Y-196540113D01*
X110377608Y-196327392D01*
X110164887Y-196152817D01*
X109922195Y-196023096D01*
X109658860Y-195943214D01*
X109385000Y-195916241D01*
X107785000Y-195916241D01*
X107511140Y-195943214D01*
X107247805Y-196023096D01*
X107005113Y-196152817D01*
X106807000Y-196315404D01*
X106807000Y-190276806D01*
X109336801Y-190276806D01*
X109451500Y-190617754D01*
X109630511Y-190929774D01*
X109866954Y-191200875D01*
X110151743Y-191420639D01*
X110473934Y-191580621D01*
X110713195Y-191653195D01*
X110998000Y-191536432D01*
X110998000Y-189992000D01*
X111252000Y-189992000D01*
X111252000Y-191536432D01*
X111536805Y-191653195D01*
X111776066Y-191580621D01*
X112098257Y-191420639D01*
X112383046Y-191200875D01*
X112619489Y-190929774D01*
X112798500Y-190617754D01*
X112913199Y-190276806D01*
X112796854Y-189992000D01*
X111252000Y-189992000D01*
X110998000Y-189992000D01*
X109453146Y-189992000D01*
X109336801Y-190276806D01*
X106807000Y-190276806D01*
X106807000Y-189453194D01*
X109336801Y-189453194D01*
X109453146Y-189738000D01*
X110998000Y-189738000D01*
X110998000Y-188193568D01*
X111252000Y-188193568D01*
X111252000Y-189738000D01*
X112796854Y-189738000D01*
X112913199Y-189453194D01*
X112798500Y-189112246D01*
X112619489Y-188800226D01*
X112383046Y-188529125D01*
X112098257Y-188309361D01*
X111776066Y-188149379D01*
X111536805Y-188076805D01*
X111252000Y-188193568D01*
X110998000Y-188193568D01*
X110713195Y-188076805D01*
X110473934Y-188149379D01*
X110151743Y-188309361D01*
X109866954Y-188529125D01*
X109630511Y-188800226D01*
X109451500Y-189112246D01*
X109336801Y-189453194D01*
X106807000Y-189453194D01*
X106807000Y-187579000D01*
X128778000Y-187579000D01*
X128778000Y-214249000D01*
%TA.AperFunction,Conductor*%
D37*
G36*
X128778000Y-214249000D02*
G01*
X125323495Y-214249000D01*
X125291902Y-214157919D01*
X125010384Y-214021776D01*
X124707714Y-213943171D01*
X124395526Y-213925123D01*
X124085815Y-213968328D01*
X123790484Y-214071123D01*
X123628098Y-214157919D01*
X123596505Y-214249000D01*
X123258757Y-214249000D01*
X123442595Y-214150737D01*
X123647301Y-213793707D01*
X122047000Y-212193405D01*
X120446699Y-213793707D01*
X120651405Y-214150737D01*
X120839983Y-214249000D01*
X99385333Y-214249000D01*
X99463500Y-214112754D01*
X99578199Y-213771806D01*
X99461854Y-213487000D01*
X97917000Y-213487000D01*
X97917000Y-213507000D01*
X97663000Y-213507000D01*
X97663000Y-213487000D01*
X96118146Y-213487000D01*
X96001801Y-213771806D01*
X96116500Y-214112754D01*
X96194667Y-214249000D01*
X85498609Y-214249000D01*
X85320934Y-214130281D01*
X84957504Y-213979743D01*
X84571687Y-213903000D01*
X84178313Y-213903000D01*
X83792496Y-213979743D01*
X83429066Y-214130281D01*
X83251391Y-214249000D01*
X82998609Y-214249000D01*
X82820934Y-214130281D01*
X82457504Y-213979743D01*
X82071687Y-213903000D01*
X81678313Y-213903000D01*
X81292496Y-213979743D01*
X80929066Y-214130281D01*
X80751391Y-214249000D01*
X63190333Y-214249000D01*
X63268500Y-214112754D01*
X63383199Y-213771806D01*
X63266854Y-213487000D01*
X61722000Y-213487000D01*
X61722000Y-213507000D01*
X61468000Y-213507000D01*
X61468000Y-213487000D01*
X59923146Y-213487000D01*
X59806801Y-213771806D01*
X59921500Y-214112754D01*
X59999667Y-214249000D01*
X44577000Y-214249000D01*
X44577000Y-212948194D01*
X59806801Y-212948194D01*
X59923146Y-213233000D01*
X61468000Y-213233000D01*
X61468000Y-211688568D01*
X61722000Y-211688568D01*
X61722000Y-213233000D01*
X63266854Y-213233000D01*
X63383199Y-212948194D01*
X96001801Y-212948194D01*
X96118146Y-213233000D01*
X97663000Y-213233000D01*
X97663000Y-211688568D01*
X97917000Y-211688568D01*
X97917000Y-213233000D01*
X99461854Y-213233000D01*
X99578199Y-212948194D01*
X99463500Y-212607246D01*
X99284489Y-212295226D01*
X99062435Y-212040623D01*
X119494851Y-212040623D01*
X119549123Y-212538008D01*
X119699387Y-213015247D01*
X119910063Y-213409395D01*
X120267093Y-213614101D01*
X121867395Y-212013800D01*
X120267093Y-210413499D01*
X119910063Y-210618205D01*
X119678857Y-211061917D01*
X119538657Y-211542209D01*
X119494851Y-212040623D01*
X99062435Y-212040623D01*
X99048046Y-212024125D01*
X98763257Y-211804361D01*
X98441066Y-211644379D01*
X98201805Y-211571805D01*
X97917000Y-211688568D01*
X97663000Y-211688568D01*
X97378195Y-211571805D01*
X97138934Y-211644379D01*
X96816743Y-211804361D01*
X96531954Y-212024125D01*
X96295511Y-212295226D01*
X96116500Y-212607246D01*
X96001801Y-212948194D01*
X63383199Y-212948194D01*
X63268500Y-212607246D01*
X63089489Y-212295226D01*
X62853046Y-212024125D01*
X62568257Y-211804361D01*
X62246066Y-211644379D01*
X62006805Y-211571805D01*
X61722000Y-211688568D01*
X61468000Y-211688568D01*
X61183195Y-211571805D01*
X60943934Y-211644379D01*
X60621743Y-211804361D01*
X60336954Y-212024125D01*
X60100511Y-212295226D01*
X59921500Y-212607246D01*
X59806801Y-212948194D01*
X44577000Y-212948194D01*
X44577000Y-210233893D01*
X120446699Y-210233893D01*
X122047000Y-211834195D01*
X122061142Y-211820052D01*
X122240748Y-211999658D01*
X122226605Y-212013800D01*
X123826907Y-213614101D01*
X124183937Y-213409395D01*
X124415143Y-212965683D01*
X124555343Y-212485391D01*
X124599149Y-211986977D01*
X124544877Y-211489592D01*
X124394613Y-211012353D01*
X124185380Y-210620904D01*
X124228594Y-210629500D01*
X124691406Y-210629500D01*
X125145324Y-210539210D01*
X125572905Y-210362100D01*
X125957719Y-210104976D01*
X126284976Y-209777719D01*
X126542100Y-209392905D01*
X126719210Y-208965324D01*
X126809500Y-208511406D01*
X126809500Y-208048594D01*
X126719210Y-207594676D01*
X126542100Y-207167095D01*
X126284976Y-206782281D01*
X125957719Y-206455024D01*
X125572905Y-206197900D01*
X125145324Y-206020790D01*
X124691406Y-205930500D01*
X124228594Y-205930500D01*
X123774676Y-206020790D01*
X123347095Y-206197900D01*
X122962281Y-206455024D01*
X122635024Y-206782281D01*
X122377900Y-207167095D01*
X122200790Y-207594676D01*
X122110500Y-208048594D01*
X122110500Y-208511406D01*
X122200790Y-208965324D01*
X122377900Y-209392905D01*
X122449019Y-209499342D01*
X122020177Y-209461651D01*
X121522792Y-209515923D01*
X121045553Y-209666187D01*
X120651405Y-209876863D01*
X120446699Y-210233893D01*
X44577000Y-210233893D01*
X44577000Y-197864218D01*
X58998000Y-197864218D01*
X58998000Y-198375782D01*
X59097801Y-198877517D01*
X59293568Y-199350141D01*
X59577778Y-199775491D01*
X59939509Y-200137222D01*
X60364859Y-200421432D01*
X60837483Y-200617199D01*
X61339218Y-200717000D01*
X61850782Y-200717000D01*
X62352517Y-200617199D01*
X62825141Y-200421432D01*
X63250491Y-200137222D01*
X63612222Y-199775491D01*
X63896432Y-199350141D01*
X64092199Y-198877517D01*
X64192000Y-198375782D01*
X64192000Y-197864218D01*
X64092199Y-197362483D01*
X63896432Y-196889859D01*
X63612222Y-196464509D01*
X63250491Y-196102778D01*
X62825141Y-195818568D01*
X62352517Y-195622801D01*
X61850782Y-195523000D01*
X61339218Y-195523000D01*
X60837483Y-195622801D01*
X60364859Y-195818568D01*
X59939509Y-196102778D01*
X59577778Y-196464509D01*
X59293568Y-196889859D01*
X59097801Y-197362483D01*
X58998000Y-197864218D01*
X44577000Y-197864218D01*
X44577000Y-191546806D01*
X50281801Y-191546806D01*
X50396500Y-191887754D01*
X50575511Y-192199774D01*
X50811954Y-192470875D01*
X51096743Y-192690639D01*
X51418934Y-192850621D01*
X51658195Y-192923195D01*
X51943000Y-192806432D01*
X51943000Y-191262000D01*
X52197000Y-191262000D01*
X52197000Y-192806432D01*
X52481805Y-192923195D01*
X52721066Y-192850621D01*
X53043257Y-192690639D01*
X53328046Y-192470875D01*
X53564489Y-192199774D01*
X53743500Y-191887754D01*
X53858199Y-191546806D01*
X59806801Y-191546806D01*
X59921500Y-191887754D01*
X60100511Y-192199774D01*
X60336954Y-192470875D01*
X60621743Y-192690639D01*
X60943934Y-192850621D01*
X61183195Y-192923195D01*
X61468000Y-192806432D01*
X61468000Y-191262000D01*
X61722000Y-191262000D01*
X61722000Y-192806432D01*
X62006805Y-192923195D01*
X62246066Y-192850621D01*
X62568257Y-192690639D01*
X62853046Y-192470875D01*
X63089489Y-192199774D01*
X63268500Y-191887754D01*
X63383199Y-191546806D01*
X63266854Y-191262000D01*
X61722000Y-191262000D01*
X61468000Y-191262000D01*
X59923146Y-191262000D01*
X59806801Y-191546806D01*
X53858199Y-191546806D01*
X53741854Y-191262000D01*
X52197000Y-191262000D01*
X51943000Y-191262000D01*
X50398146Y-191262000D01*
X50281801Y-191546806D01*
X44577000Y-191546806D01*
X44577000Y-190723194D01*
X50281801Y-190723194D01*
X50398146Y-191008000D01*
X51943000Y-191008000D01*
X51943000Y-189463568D01*
X52197000Y-189463568D01*
X52197000Y-191008000D01*
X53741854Y-191008000D01*
X53858199Y-190723194D01*
X59806801Y-190723194D01*
X59923146Y-191008000D01*
X61468000Y-191008000D01*
X61468000Y-189463568D01*
X61722000Y-189463568D01*
X61722000Y-191008000D01*
X63266854Y-191008000D01*
X63383199Y-190723194D01*
X63268500Y-190382246D01*
X63089489Y-190070226D01*
X62853046Y-189799125D01*
X62568257Y-189579361D01*
X62246066Y-189419379D01*
X62006805Y-189346805D01*
X61722000Y-189463568D01*
X61468000Y-189463568D01*
X61183195Y-189346805D01*
X60943934Y-189419379D01*
X60621743Y-189579361D01*
X60336954Y-189799125D01*
X60100511Y-190070226D01*
X59921500Y-190382246D01*
X59806801Y-190723194D01*
X53858199Y-190723194D01*
X53743500Y-190382246D01*
X53564489Y-190070226D01*
X53328046Y-189799125D01*
X53043257Y-189579361D01*
X52721066Y-189419379D01*
X52481805Y-189346805D01*
X52197000Y-189463568D01*
X51943000Y-189463568D01*
X51658195Y-189346805D01*
X51418934Y-189419379D01*
X51096743Y-189579361D01*
X50811954Y-189799125D01*
X50575511Y-190070226D01*
X50396500Y-190382246D01*
X50281801Y-190723194D01*
X44577000Y-190723194D01*
X44577000Y-188722000D01*
X65278000Y-188722000D01*
X65278000Y-208280000D01*
X65280440Y-208304776D01*
X65287667Y-208328601D01*
X65299403Y-208350557D01*
X65315197Y-208369803D01*
X65334443Y-208385597D01*
X65356399Y-208397333D01*
X65380224Y-208404560D01*
X65405000Y-208407000D01*
X106680000Y-208407000D01*
X106704776Y-208404560D01*
X106728601Y-208397333D01*
X106750557Y-208385597D01*
X106769803Y-208369803D01*
X106785597Y-208350557D01*
X106797333Y-208328601D01*
X106804560Y-208304776D01*
X106807000Y-208280000D01*
X106807000Y-202612702D01*
X107771903Y-202612702D01*
X107843486Y-202856671D01*
X108098996Y-202977571D01*
X108373184Y-203046300D01*
X108655512Y-203060217D01*
X108935130Y-203018787D01*
X109201292Y-202923603D01*
X109326514Y-202856671D01*
X109398097Y-202612702D01*
X108585000Y-201799605D01*
X107771903Y-202612702D01*
X106807000Y-202612702D01*
X106807000Y-201690512D01*
X107144783Y-201690512D01*
X107186213Y-201970130D01*
X107281397Y-202236292D01*
X107348329Y-202361514D01*
X107592298Y-202433097D01*
X108405395Y-201620000D01*
X108764605Y-201620000D01*
X109577702Y-202433097D01*
X109821671Y-202361514D01*
X109942571Y-202106004D01*
X110011300Y-201831816D01*
X110025217Y-201549488D01*
X109983787Y-201269870D01*
X109888603Y-201003708D01*
X109821671Y-200878486D01*
X109577702Y-200806903D01*
X108764605Y-201620000D01*
X108405395Y-201620000D01*
X107592298Y-200806903D01*
X107348329Y-200878486D01*
X107227429Y-201133996D01*
X107158700Y-201408184D01*
X107144783Y-201690512D01*
X106807000Y-201690512D01*
X106807000Y-199924596D01*
X107005113Y-200087183D01*
X107247805Y-200216904D01*
X107511140Y-200296786D01*
X107785000Y-200323759D01*
X107954935Y-200323759D01*
X107843486Y-200383329D01*
X107771903Y-200627298D01*
X108585000Y-201440395D01*
X109398097Y-200627298D01*
X109326514Y-200383329D01*
X109200619Y-200323759D01*
X109385000Y-200323759D01*
X109658860Y-200296786D01*
X109922195Y-200216904D01*
X110164887Y-200087183D01*
X110377608Y-199912608D01*
X110552183Y-199699887D01*
X110681904Y-199457195D01*
X110761786Y-199193860D01*
X110788759Y-198920000D01*
X110788759Y-197320000D01*
X110761786Y-197046140D01*
X110681904Y-196782805D01*
X110552183Y-196540113D01*
X110377608Y-196327392D01*
X110164887Y-196152817D01*
X109922195Y-196023096D01*
X109658860Y-195943214D01*
X109385000Y-195916241D01*
X107785000Y-195916241D01*
X107511140Y-195943214D01*
X107247805Y-196023096D01*
X107005113Y-196152817D01*
X106807000Y-196315404D01*
X106807000Y-190276806D01*
X109336801Y-190276806D01*
X109451500Y-190617754D01*
X109630511Y-190929774D01*
X109866954Y-191200875D01*
X110151743Y-191420639D01*
X110473934Y-191580621D01*
X110713195Y-191653195D01*
X110998000Y-191536432D01*
X110998000Y-189992000D01*
X111252000Y-189992000D01*
X111252000Y-191536432D01*
X111536805Y-191653195D01*
X111776066Y-191580621D01*
X112098257Y-191420639D01*
X112383046Y-191200875D01*
X112619489Y-190929774D01*
X112798500Y-190617754D01*
X112913199Y-190276806D01*
X112796854Y-189992000D01*
X111252000Y-189992000D01*
X110998000Y-189992000D01*
X109453146Y-189992000D01*
X109336801Y-190276806D01*
X106807000Y-190276806D01*
X106807000Y-189453194D01*
X109336801Y-189453194D01*
X109453146Y-189738000D01*
X110998000Y-189738000D01*
X110998000Y-188193568D01*
X111252000Y-188193568D01*
X111252000Y-189738000D01*
X112796854Y-189738000D01*
X112913199Y-189453194D01*
X112798500Y-189112246D01*
X112619489Y-188800226D01*
X112383046Y-188529125D01*
X112098257Y-188309361D01*
X111776066Y-188149379D01*
X111536805Y-188076805D01*
X111252000Y-188193568D01*
X110998000Y-188193568D01*
X110713195Y-188076805D01*
X110473934Y-188149379D01*
X110151743Y-188309361D01*
X109866954Y-188529125D01*
X109630511Y-188800226D01*
X109451500Y-189112246D01*
X109336801Y-189453194D01*
X106807000Y-189453194D01*
X106807000Y-187579000D01*
X128778000Y-187579000D01*
X128778000Y-214249000D01*
G37*
%TD.AperFunction*%
%TD*%
D36*
%TO.N,Earth_Protective*%
X413868001Y-41783000D02*
X398843500Y-41783000D01*
X395712331Y-37608107D01*
X405801498Y-37608107D01*
X406158686Y-38095213D01*
X406818405Y-38453024D01*
X407535253Y-38675255D01*
X408281682Y-38753365D01*
X409029007Y-38684353D01*
X409748508Y-38470871D01*
X410412537Y-38121123D01*
X410451314Y-38095213D01*
X410808502Y-37608107D01*
X408305000Y-35104605D01*
X405801498Y-37608107D01*
X395712331Y-37608107D01*
X395071600Y-36753800D01*
X395054782Y-36735443D01*
X395034706Y-36720720D01*
X395012143Y-36710196D01*
X394987961Y-36704276D01*
X394970000Y-36703000D01*
X371634282Y-36703000D01*
X371684374Y-36583980D01*
X370586000Y-35485605D01*
X369487626Y-36583980D01*
X369537718Y-36703000D01*
X360607446Y-36703000D01*
X360778044Y-36611814D01*
X360873808Y-36347413D01*
X359918000Y-35391605D01*
X358962192Y-36347413D01*
X359057956Y-36611814D01*
X359245399Y-36703000D01*
X264989975Y-36703000D01*
X265148024Y-36411595D01*
X265370255Y-35694747D01*
X265414221Y-35274595D01*
X358276282Y-35274595D01*
X358320039Y-35593675D01*
X358425205Y-35898088D01*
X358518186Y-36072044D01*
X358782587Y-36167808D01*
X359738395Y-35212000D01*
X360097605Y-35212000D01*
X361053413Y-36167808D01*
X361317814Y-36072044D01*
X361458704Y-35782429D01*
X361540384Y-35470892D01*
X361547011Y-35360684D01*
X368742933Y-35360684D01*
X368789015Y-35719198D01*
X368904154Y-36061833D01*
X369023164Y-36284486D01*
X369308020Y-36404374D01*
X370406395Y-35306000D01*
X370765605Y-35306000D01*
X371863980Y-36404374D01*
X372148836Y-36284486D01*
X372309699Y-35960790D01*
X372404322Y-35611931D01*
X372429067Y-35251316D01*
X372384127Y-34901682D01*
X404476635Y-34901682D01*
X404545647Y-35649007D01*
X404759129Y-36368508D01*
X405108877Y-37032537D01*
X405134787Y-37071314D01*
X405621893Y-37428502D01*
X408125395Y-34925000D01*
X408484605Y-34925000D01*
X410988107Y-37428502D01*
X411475213Y-37071314D01*
X411833024Y-36411595D01*
X412055255Y-35694747D01*
X412133365Y-34948318D01*
X412064353Y-34200993D01*
X411850871Y-33481492D01*
X411501123Y-32817463D01*
X411475213Y-32778686D01*
X410988107Y-32421498D01*
X408484605Y-34925000D01*
X408125395Y-34925000D01*
X405621893Y-32421498D01*
X405134787Y-32778686D01*
X404776976Y-33438405D01*
X404554745Y-34155253D01*
X404476635Y-34901682D01*
X372384127Y-34901682D01*
X372382985Y-34892802D01*
X372267846Y-34550167D01*
X372148836Y-34327514D01*
X371863980Y-34207626D01*
X370765605Y-35306000D01*
X370406395Y-35306000D01*
X369308020Y-34207626D01*
X369023164Y-34327514D01*
X368862301Y-34651210D01*
X368767678Y-35000069D01*
X368742933Y-35360684D01*
X361547011Y-35360684D01*
X361559718Y-35149405D01*
X361515961Y-34830325D01*
X361410795Y-34525912D01*
X361317814Y-34351956D01*
X361053413Y-34256192D01*
X360097605Y-35212000D01*
X359738395Y-35212000D01*
X358782587Y-34256192D01*
X358518186Y-34351956D01*
X358377296Y-34641571D01*
X358295616Y-34953108D01*
X358276282Y-35274595D01*
X265414221Y-35274595D01*
X265448365Y-34948318D01*
X265379353Y-34200993D01*
X265342441Y-34076587D01*
X358962192Y-34076587D01*
X359918000Y-35032395D01*
X360873808Y-34076587D01*
X360856218Y-34028020D01*
X369487626Y-34028020D01*
X370586000Y-35126395D01*
X371684374Y-34028020D01*
X371564486Y-33743164D01*
X371240790Y-33582301D01*
X370891931Y-33487678D01*
X370531316Y-33462933D01*
X370172802Y-33509015D01*
X369830167Y-33624154D01*
X369607514Y-33743164D01*
X369487626Y-34028020D01*
X360856218Y-34028020D01*
X360778044Y-33812186D01*
X360488429Y-33671296D01*
X360176892Y-33589616D01*
X359855405Y-33570282D01*
X359536325Y-33614039D01*
X359231912Y-33719205D01*
X359057956Y-33812186D01*
X358962192Y-34076587D01*
X265342441Y-34076587D01*
X265165871Y-33481492D01*
X264816123Y-32817463D01*
X264790213Y-32778686D01*
X264303107Y-32421498D01*
X261799605Y-34925000D01*
X261813748Y-34939143D01*
X261634143Y-35118748D01*
X261620000Y-35104605D01*
X261605858Y-35118748D01*
X261426253Y-34939143D01*
X261440395Y-34925000D01*
X258936893Y-32421498D01*
X258449787Y-32778686D01*
X258091976Y-33438405D01*
X257869745Y-34155253D01*
X257791635Y-34901682D01*
X257818792Y-35195758D01*
X255234160Y-32241893D01*
X259116498Y-32241893D01*
X261620000Y-34745395D01*
X264123502Y-32241893D01*
X405801498Y-32241893D01*
X408305000Y-34745395D01*
X410808502Y-32241893D01*
X410451314Y-31754787D01*
X409791595Y-31396976D01*
X409074747Y-31174745D01*
X408328318Y-31096635D01*
X407580993Y-31165647D01*
X406861492Y-31379129D01*
X406197463Y-31728877D01*
X406158686Y-31754787D01*
X405801498Y-32241893D01*
X264123502Y-32241893D01*
X263766314Y-31754787D01*
X263106595Y-31396976D01*
X262389747Y-31174745D01*
X261643318Y-31096635D01*
X260895993Y-31165647D01*
X260176492Y-31379129D01*
X259512463Y-31728877D01*
X259473686Y-31754787D01*
X259116498Y-32241893D01*
X255234160Y-32241893D01*
X254730577Y-31666370D01*
X254712425Y-31649331D01*
X254691298Y-31636160D01*
X254668007Y-31627364D01*
X254635000Y-31623000D01*
X52705000Y-31623000D01*
X52680224Y-31625440D01*
X52656399Y-31632667D01*
X52634443Y-31644403D01*
X52615197Y-31660197D01*
X52605320Y-31671305D01*
X43080320Y-43736305D01*
X43066883Y-43757264D01*
X43057792Y-43780441D01*
X43053000Y-43815000D01*
X43053000Y-111515590D01*
X43046346Y-111518346D01*
X42297520Y-112018696D01*
X41660696Y-112655520D01*
X41160346Y-113404346D01*
X40815699Y-114236397D01*
X40640000Y-115119697D01*
X40640000Y-116020303D01*
X40815699Y-116903603D01*
X41160346Y-117735654D01*
X41660696Y-118484480D01*
X42297520Y-119121304D01*
X43046346Y-119621654D01*
X43053000Y-119624410D01*
X43053000Y-215900000D01*
X43055440Y-215924776D01*
X43062667Y-215948601D01*
X43074403Y-215970557D01*
X43090197Y-215989803D01*
X43109443Y-216005597D01*
X43131399Y-216017333D01*
X43155224Y-216024560D01*
X43180000Y-216027000D01*
X77345677Y-216027000D01*
X77372402Y-216298340D01*
X77488594Y-216681374D01*
X77677280Y-217034381D01*
X77931207Y-217343793D01*
X78240619Y-217597720D01*
X78593625Y-217786406D01*
X78976659Y-217902598D01*
X79375000Y-217941831D01*
X79773340Y-217902598D01*
X80156374Y-217786406D01*
X80509381Y-217597720D01*
X80649372Y-217482833D01*
X80929066Y-217669719D01*
X81292496Y-217820257D01*
X81678313Y-217897000D01*
X82071687Y-217897000D01*
X82457504Y-217820257D01*
X82820934Y-217669719D01*
X83125000Y-217466548D01*
X83429066Y-217669719D01*
X83792496Y-217820257D01*
X84178313Y-217897000D01*
X84571687Y-217897000D01*
X84957504Y-217820257D01*
X85320934Y-217669719D01*
X85648014Y-217451171D01*
X85926171Y-217173014D01*
X86144719Y-216845934D01*
X86295257Y-216482504D01*
X86372000Y-216096687D01*
X86372000Y-216027000D01*
X122094318Y-216027000D01*
X122183197Y-216115879D01*
X122200790Y-216204324D01*
X122377900Y-216631905D01*
X122635024Y-217016719D01*
X122962281Y-217343976D01*
X123347095Y-217601100D01*
X123774676Y-217778210D01*
X124228594Y-217868500D01*
X124691406Y-217868500D01*
X125145324Y-217778210D01*
X125572905Y-217601100D01*
X125957719Y-217343976D01*
X126284976Y-217016719D01*
X126542100Y-216631905D01*
X126719210Y-216204324D01*
X126754482Y-216027000D01*
X136160918Y-216027000D01*
X136196190Y-216204324D01*
X136373300Y-216631905D01*
X136630424Y-217016719D01*
X136957681Y-217343976D01*
X137342495Y-217601100D01*
X137770076Y-217778210D01*
X138223994Y-217868500D01*
X138686806Y-217868500D01*
X139140724Y-217778210D01*
X139568305Y-217601100D01*
X139953119Y-217343976D01*
X140280376Y-217016719D01*
X140537500Y-216631905D01*
X140714610Y-216204324D01*
X140749882Y-216027000D01*
X180248000Y-216027000D01*
X180248000Y-216096687D01*
X180324743Y-216482504D01*
X180475281Y-216845934D01*
X180693829Y-217173014D01*
X180971986Y-217451171D01*
X181299066Y-217669719D01*
X181662496Y-217820257D01*
X182048313Y-217897000D01*
X182441687Y-217897000D01*
X182827504Y-217820257D01*
X183190934Y-217669719D01*
X183495000Y-217466548D01*
X183799066Y-217669719D01*
X184162496Y-217820257D01*
X184548313Y-217897000D01*
X184941687Y-217897000D01*
X185327504Y-217820257D01*
X185690934Y-217669719D01*
X185995000Y-217466548D01*
X186299066Y-217669719D01*
X186662496Y-217820257D01*
X187048313Y-217897000D01*
X187441687Y-217897000D01*
X187827504Y-217820257D01*
X188190934Y-217669719D01*
X188518014Y-217451171D01*
X188796171Y-217173014D01*
X189014719Y-216845934D01*
X189165257Y-216482504D01*
X189242000Y-216096687D01*
X189242000Y-216027000D01*
X251512605Y-216027000D01*
X251496498Y-216043107D01*
X251853686Y-216530213D01*
X252513405Y-216888024D01*
X253230253Y-217110255D01*
X253976682Y-217188365D01*
X254724007Y-217119353D01*
X255443508Y-216905871D01*
X256107537Y-216556123D01*
X256146314Y-216530213D01*
X256503502Y-216043107D01*
X405166498Y-216043107D01*
X405523686Y-216530213D01*
X406183405Y-216888024D01*
X406900253Y-217110255D01*
X407646682Y-217188365D01*
X408394007Y-217119353D01*
X409113508Y-216905871D01*
X409777537Y-216556123D01*
X409816314Y-216530213D01*
X410173502Y-216043107D01*
X407670000Y-213539605D01*
X405166498Y-216043107D01*
X256503502Y-216043107D01*
X256487395Y-216027000D01*
X399415000Y-216027000D01*
X399439776Y-216024560D01*
X399463601Y-216017333D01*
X399485557Y-216005597D01*
X399504803Y-215989803D01*
X399525690Y-215962263D01*
X401002579Y-213336682D01*
X403841635Y-213336682D01*
X403910647Y-214084007D01*
X404124129Y-214803508D01*
X404473877Y-215467537D01*
X404499787Y-215506314D01*
X404986893Y-215863502D01*
X407490395Y-213360000D01*
X407849605Y-213360000D01*
X410353107Y-215863502D01*
X410840213Y-215506314D01*
X411198024Y-214846595D01*
X411420255Y-214129747D01*
X411498365Y-213383318D01*
X411429353Y-212635993D01*
X411215871Y-211916492D01*
X410866123Y-211252463D01*
X410840213Y-211213686D01*
X410353107Y-210856498D01*
X407849605Y-213360000D01*
X407490395Y-213360000D01*
X404986893Y-210856498D01*
X404499787Y-211213686D01*
X404141976Y-211873405D01*
X403919745Y-212590253D01*
X403841635Y-213336682D01*
X401002579Y-213336682D01*
X402498710Y-210676893D01*
X405166498Y-210676893D01*
X407670000Y-213180395D01*
X410173502Y-210676893D01*
X409816314Y-210189787D01*
X409156595Y-209831976D01*
X408439747Y-209609745D01*
X407693318Y-209531635D01*
X406945993Y-209600647D01*
X406226492Y-209814129D01*
X405562463Y-210163877D01*
X405523686Y-210189787D01*
X405166498Y-210676893D01*
X402498710Y-210676893D01*
X405240690Y-205802263D01*
X405250710Y-205779472D01*
X405256091Y-205755164D01*
X405257000Y-205740000D01*
X405257000Y-149457148D01*
X407218457Y-149457148D01*
X407494627Y-149875118D01*
X408039557Y-150165649D01*
X408630696Y-150344287D01*
X409245328Y-150404168D01*
X409859831Y-150342990D01*
X410450592Y-150163103D01*
X410989373Y-149875118D01*
X411265543Y-149457148D01*
X409242000Y-147433605D01*
X407218457Y-149457148D01*
X405257000Y-149457148D01*
X405257000Y-147257328D01*
X406091832Y-147257328D01*
X406153010Y-147871831D01*
X406332897Y-148462592D01*
X406620882Y-149001373D01*
X407038852Y-149277543D01*
X409062395Y-147254000D01*
X409421605Y-147254000D01*
X411445148Y-149277543D01*
X411863118Y-149001373D01*
X412153649Y-148456443D01*
X412332287Y-147865304D01*
X412392168Y-147250672D01*
X412330990Y-146636169D01*
X412151103Y-146045408D01*
X411863118Y-145506627D01*
X411445148Y-145230457D01*
X409421605Y-147254000D01*
X409062395Y-147254000D01*
X407038852Y-145230457D01*
X406620882Y-145506627D01*
X406330351Y-146051557D01*
X406151713Y-146642696D01*
X406091832Y-147257328D01*
X405257000Y-147257328D01*
X405257000Y-145050852D01*
X407218457Y-145050852D01*
X409242000Y-147074395D01*
X411265543Y-145050852D01*
X410989373Y-144632882D01*
X410444443Y-144342351D01*
X409853304Y-144163713D01*
X409238672Y-144103832D01*
X408624169Y-144165010D01*
X408033408Y-144344897D01*
X407494627Y-144632882D01*
X407218457Y-145050852D01*
X405257000Y-145050852D01*
X405257000Y-109457148D01*
X407218457Y-109457148D01*
X407494627Y-109875118D01*
X408039557Y-110165649D01*
X408630696Y-110344287D01*
X409245328Y-110404168D01*
X409859831Y-110342990D01*
X410450592Y-110163103D01*
X410989373Y-109875118D01*
X411265543Y-109457148D01*
X409242000Y-107433605D01*
X407218457Y-109457148D01*
X405257000Y-109457148D01*
X405257000Y-107257328D01*
X406091832Y-107257328D01*
X406153010Y-107871831D01*
X406332897Y-108462592D01*
X406620882Y-109001373D01*
X407038852Y-109277543D01*
X409062395Y-107254000D01*
X409421605Y-107254000D01*
X411445148Y-109277543D01*
X411863118Y-109001373D01*
X412153649Y-108456443D01*
X412332287Y-107865304D01*
X412392168Y-107250672D01*
X412330990Y-106636169D01*
X412151103Y-106045408D01*
X411863118Y-105506627D01*
X411445148Y-105230457D01*
X409421605Y-107254000D01*
X409062395Y-107254000D01*
X407038852Y-105230457D01*
X406620882Y-105506627D01*
X406330351Y-106051557D01*
X406151713Y-106642696D01*
X406091832Y-107257328D01*
X405257000Y-107257328D01*
X405257000Y-105050852D01*
X407218457Y-105050852D01*
X409242000Y-107074395D01*
X411265543Y-105050852D01*
X410989373Y-104632882D01*
X410444443Y-104342351D01*
X409853304Y-104163713D01*
X409238672Y-104103832D01*
X408624169Y-104165010D01*
X408033408Y-104344897D01*
X407494627Y-104632882D01*
X407218457Y-105050852D01*
X405257000Y-105050852D01*
X405257000Y-67078594D01*
X407860500Y-67078594D01*
X407860500Y-67541406D01*
X407950790Y-67995324D01*
X408127900Y-68422905D01*
X408385024Y-68807719D01*
X408712281Y-69134976D01*
X409097095Y-69392100D01*
X409524676Y-69569210D01*
X409978594Y-69659500D01*
X410441406Y-69659500D01*
X410895324Y-69569210D01*
X411322905Y-69392100D01*
X411707719Y-69134976D01*
X412034976Y-68807719D01*
X412292100Y-68422905D01*
X412469210Y-67995324D01*
X412559500Y-67541406D01*
X412559500Y-67078594D01*
X412469210Y-66624676D01*
X412292100Y-66197095D01*
X412034976Y-65812281D01*
X411707719Y-65485024D01*
X411322905Y-65227900D01*
X410895324Y-65050790D01*
X410441406Y-64960500D01*
X409978594Y-64960500D01*
X409524676Y-65050790D01*
X409097095Y-65227900D01*
X408712281Y-65485024D01*
X408385024Y-65812281D01*
X408127900Y-66197095D01*
X407950790Y-66624676D01*
X407860500Y-67078594D01*
X405257000Y-67078594D01*
X405257000Y-43307000D01*
X413868001Y-43307000D01*
X413868000Y-219558000D01*
X386966930Y-219558000D01*
X387093210Y-219435606D01*
X387264862Y-219187204D01*
X387384755Y-218910087D01*
X387409036Y-218804740D01*
X387288378Y-218567000D01*
X385445000Y-218567000D01*
X385445000Y-218587000D01*
X385191000Y-218587000D01*
X385191000Y-218567000D01*
X383347622Y-218567000D01*
X383226964Y-218804740D01*
X383251245Y-218910087D01*
X383371138Y-219187204D01*
X383542790Y-219435606D01*
X383669070Y-219558000D01*
X381886930Y-219558000D01*
X382013210Y-219435606D01*
X382184862Y-219187204D01*
X382304755Y-218910087D01*
X382329036Y-218804740D01*
X382208378Y-218567000D01*
X380365000Y-218567000D01*
X380365000Y-218587000D01*
X380111000Y-218587000D01*
X380111000Y-218567000D01*
X378267622Y-218567000D01*
X378146964Y-218804740D01*
X378171245Y-218910087D01*
X378291138Y-219187204D01*
X378462790Y-219435606D01*
X378589070Y-219558000D01*
X29362000Y-219558000D01*
X29362000Y-218075260D01*
X378146964Y-218075260D01*
X378267622Y-218313000D01*
X380111000Y-218313000D01*
X380111000Y-216905000D01*
X380365000Y-216905000D01*
X380365000Y-218313000D01*
X382208378Y-218313000D01*
X382329036Y-218075260D01*
X383226964Y-218075260D01*
X383347622Y-218313000D01*
X385191000Y-218313000D01*
X385191000Y-216905000D01*
X385445000Y-216905000D01*
X385445000Y-218313000D01*
X387288378Y-218313000D01*
X387409036Y-218075260D01*
X387384755Y-217969913D01*
X387264862Y-217692796D01*
X387093210Y-217444394D01*
X386876396Y-217234252D01*
X386622751Y-217070446D01*
X386342023Y-216959271D01*
X386045000Y-216905000D01*
X385445000Y-216905000D01*
X385191000Y-216905000D01*
X384591000Y-216905000D01*
X384293977Y-216959271D01*
X384013249Y-217070446D01*
X383759604Y-217234252D01*
X383542790Y-217444394D01*
X383371138Y-217692796D01*
X383251245Y-217969913D01*
X383226964Y-218075260D01*
X382329036Y-218075260D01*
X382304755Y-217969913D01*
X382184862Y-217692796D01*
X382013210Y-217444394D01*
X381796396Y-217234252D01*
X381542751Y-217070446D01*
X381262023Y-216959271D01*
X380965000Y-216905000D01*
X380365000Y-216905000D01*
X380111000Y-216905000D01*
X379511000Y-216905000D01*
X379213977Y-216959271D01*
X378933249Y-217070446D01*
X378679604Y-217234252D01*
X378462790Y-217444394D01*
X378291138Y-217692796D01*
X378171245Y-217969913D01*
X378146964Y-218075260D01*
X29362000Y-218075260D01*
X29362000Y-216043107D01*
X33056498Y-216043107D01*
X33413686Y-216530213D01*
X34073405Y-216888024D01*
X34790253Y-217110255D01*
X35536682Y-217188365D01*
X36284007Y-217119353D01*
X37003508Y-216905871D01*
X37667537Y-216556123D01*
X37706314Y-216530213D01*
X38063502Y-216043107D01*
X35560000Y-213539605D01*
X33056498Y-216043107D01*
X29362000Y-216043107D01*
X29362000Y-213336682D01*
X31731635Y-213336682D01*
X31800647Y-214084007D01*
X32014129Y-214803508D01*
X32363877Y-215467537D01*
X32389787Y-215506314D01*
X32876893Y-215863502D01*
X35380395Y-213360000D01*
X35739605Y-213360000D01*
X38243107Y-215863502D01*
X38730213Y-215506314D01*
X39088024Y-214846595D01*
X39310255Y-214129747D01*
X39388365Y-213383318D01*
X39319353Y-212635993D01*
X39105871Y-211916492D01*
X38756123Y-211252463D01*
X38730213Y-211213686D01*
X38243107Y-210856498D01*
X35739605Y-213360000D01*
X35380395Y-213360000D01*
X32876893Y-210856498D01*
X32389787Y-211213686D01*
X32031976Y-211873405D01*
X31809745Y-212590253D01*
X31731635Y-213336682D01*
X29362000Y-213336682D01*
X29362000Y-210676893D01*
X33056498Y-210676893D01*
X35560000Y-213180395D01*
X38063502Y-210676893D01*
X37706314Y-210189787D01*
X37046595Y-209831976D01*
X36329747Y-209609745D01*
X35583318Y-209531635D01*
X34835993Y-209600647D01*
X34116492Y-209814129D01*
X33452463Y-210163877D01*
X33413686Y-210189787D01*
X33056498Y-210676893D01*
X29362000Y-210676893D01*
X29362000Y-38243107D01*
X33056498Y-38243107D01*
X33413686Y-38730213D01*
X34073405Y-39088024D01*
X34790253Y-39310255D01*
X35536682Y-39388365D01*
X36284007Y-39319353D01*
X37003508Y-39105871D01*
X37667537Y-38756123D01*
X37706314Y-38730213D01*
X38063502Y-38243107D01*
X35560000Y-35739605D01*
X33056498Y-38243107D01*
X29362000Y-38243107D01*
X29362000Y-35536682D01*
X31731635Y-35536682D01*
X31800647Y-36284007D01*
X32014129Y-37003508D01*
X32363877Y-37667537D01*
X32389787Y-37706314D01*
X32876893Y-38063502D01*
X35380395Y-35560000D01*
X35739605Y-35560000D01*
X38243107Y-38063502D01*
X38730213Y-37706314D01*
X39088024Y-37046595D01*
X39310255Y-36329747D01*
X39388365Y-35583318D01*
X39319353Y-34835993D01*
X39105871Y-34116492D01*
X38756123Y-33452463D01*
X38730213Y-33413686D01*
X38243107Y-33056498D01*
X35739605Y-35560000D01*
X35380395Y-35560000D01*
X32876893Y-33056498D01*
X32389787Y-33413686D01*
X32031976Y-34073405D01*
X31809745Y-34790253D01*
X31731635Y-35536682D01*
X29362000Y-35536682D01*
X29362000Y-32876893D01*
X33056498Y-32876893D01*
X35560000Y-35380395D01*
X38063502Y-32876893D01*
X37706314Y-32389787D01*
X37046595Y-32031976D01*
X36329747Y-31809745D01*
X35583318Y-31731635D01*
X34835993Y-31800647D01*
X34116492Y-32014129D01*
X33452463Y-32363877D01*
X33413686Y-32389787D01*
X33056498Y-32876893D01*
X29362000Y-32876893D01*
X29362000Y-29362000D01*
X413868001Y-29362000D01*
X413868001Y-41783000D01*
%TA.AperFunction,Conductor*%
D37*
G36*
X413868001Y-41783000D02*
G01*
X398843500Y-41783000D01*
X395712331Y-37608107D01*
X405801498Y-37608107D01*
X406158686Y-38095213D01*
X406818405Y-38453024D01*
X407535253Y-38675255D01*
X408281682Y-38753365D01*
X409029007Y-38684353D01*
X409748508Y-38470871D01*
X410412537Y-38121123D01*
X410451314Y-38095213D01*
X410808502Y-37608107D01*
X408305000Y-35104605D01*
X405801498Y-37608107D01*
X395712331Y-37608107D01*
X395071600Y-36753800D01*
X395054782Y-36735443D01*
X395034706Y-36720720D01*
X395012143Y-36710196D01*
X394987961Y-36704276D01*
X394970000Y-36703000D01*
X371634282Y-36703000D01*
X371684374Y-36583980D01*
X370586000Y-35485605D01*
X369487626Y-36583980D01*
X369537718Y-36703000D01*
X360607446Y-36703000D01*
X360778044Y-36611814D01*
X360873808Y-36347413D01*
X359918000Y-35391605D01*
X358962192Y-36347413D01*
X359057956Y-36611814D01*
X359245399Y-36703000D01*
X264989975Y-36703000D01*
X265148024Y-36411595D01*
X265370255Y-35694747D01*
X265414221Y-35274595D01*
X358276282Y-35274595D01*
X358320039Y-35593675D01*
X358425205Y-35898088D01*
X358518186Y-36072044D01*
X358782587Y-36167808D01*
X359738395Y-35212000D01*
X360097605Y-35212000D01*
X361053413Y-36167808D01*
X361317814Y-36072044D01*
X361458704Y-35782429D01*
X361540384Y-35470892D01*
X361547011Y-35360684D01*
X368742933Y-35360684D01*
X368789015Y-35719198D01*
X368904154Y-36061833D01*
X369023164Y-36284486D01*
X369308020Y-36404374D01*
X370406395Y-35306000D01*
X370765605Y-35306000D01*
X371863980Y-36404374D01*
X372148836Y-36284486D01*
X372309699Y-35960790D01*
X372404322Y-35611931D01*
X372429067Y-35251316D01*
X372384127Y-34901682D01*
X404476635Y-34901682D01*
X404545647Y-35649007D01*
X404759129Y-36368508D01*
X405108877Y-37032537D01*
X405134787Y-37071314D01*
X405621893Y-37428502D01*
X408125395Y-34925000D01*
X408484605Y-34925000D01*
X410988107Y-37428502D01*
X411475213Y-37071314D01*
X411833024Y-36411595D01*
X412055255Y-35694747D01*
X412133365Y-34948318D01*
X412064353Y-34200993D01*
X411850871Y-33481492D01*
X411501123Y-32817463D01*
X411475213Y-32778686D01*
X410988107Y-32421498D01*
X408484605Y-34925000D01*
X408125395Y-34925000D01*
X405621893Y-32421498D01*
X405134787Y-32778686D01*
X404776976Y-33438405D01*
X404554745Y-34155253D01*
X404476635Y-34901682D01*
X372384127Y-34901682D01*
X372382985Y-34892802D01*
X372267846Y-34550167D01*
X372148836Y-34327514D01*
X371863980Y-34207626D01*
X370765605Y-35306000D01*
X370406395Y-35306000D01*
X369308020Y-34207626D01*
X369023164Y-34327514D01*
X368862301Y-34651210D01*
X368767678Y-35000069D01*
X368742933Y-35360684D01*
X361547011Y-35360684D01*
X361559718Y-35149405D01*
X361515961Y-34830325D01*
X361410795Y-34525912D01*
X361317814Y-34351956D01*
X361053413Y-34256192D01*
X360097605Y-35212000D01*
X359738395Y-35212000D01*
X358782587Y-34256192D01*
X358518186Y-34351956D01*
X358377296Y-34641571D01*
X358295616Y-34953108D01*
X358276282Y-35274595D01*
X265414221Y-35274595D01*
X265448365Y-34948318D01*
X265379353Y-34200993D01*
X265342441Y-34076587D01*
X358962192Y-34076587D01*
X359918000Y-35032395D01*
X360873808Y-34076587D01*
X360856218Y-34028020D01*
X369487626Y-34028020D01*
X370586000Y-35126395D01*
X371684374Y-34028020D01*
X371564486Y-33743164D01*
X371240790Y-33582301D01*
X370891931Y-33487678D01*
X370531316Y-33462933D01*
X370172802Y-33509015D01*
X369830167Y-33624154D01*
X369607514Y-33743164D01*
X369487626Y-34028020D01*
X360856218Y-34028020D01*
X360778044Y-33812186D01*
X360488429Y-33671296D01*
X360176892Y-33589616D01*
X359855405Y-33570282D01*
X359536325Y-33614039D01*
X359231912Y-33719205D01*
X359057956Y-33812186D01*
X358962192Y-34076587D01*
X265342441Y-34076587D01*
X265165871Y-33481492D01*
X264816123Y-32817463D01*
X264790213Y-32778686D01*
X264303107Y-32421498D01*
X261799605Y-34925000D01*
X261813748Y-34939143D01*
X261634143Y-35118748D01*
X261620000Y-35104605D01*
X261605858Y-35118748D01*
X261426253Y-34939143D01*
X261440395Y-34925000D01*
X258936893Y-32421498D01*
X258449787Y-32778686D01*
X258091976Y-33438405D01*
X257869745Y-34155253D01*
X257791635Y-34901682D01*
X257818792Y-35195758D01*
X255234160Y-32241893D01*
X259116498Y-32241893D01*
X261620000Y-34745395D01*
X264123502Y-32241893D01*
X405801498Y-32241893D01*
X408305000Y-34745395D01*
X410808502Y-32241893D01*
X410451314Y-31754787D01*
X409791595Y-31396976D01*
X409074747Y-31174745D01*
X408328318Y-31096635D01*
X407580993Y-31165647D01*
X406861492Y-31379129D01*
X406197463Y-31728877D01*
X406158686Y-31754787D01*
X405801498Y-32241893D01*
X264123502Y-32241893D01*
X263766314Y-31754787D01*
X263106595Y-31396976D01*
X262389747Y-31174745D01*
X261643318Y-31096635D01*
X260895993Y-31165647D01*
X260176492Y-31379129D01*
X259512463Y-31728877D01*
X259473686Y-31754787D01*
X259116498Y-32241893D01*
X255234160Y-32241893D01*
X254730577Y-31666370D01*
X254712425Y-31649331D01*
X254691298Y-31636160D01*
X254668007Y-31627364D01*
X254635000Y-31623000D01*
X52705000Y-31623000D01*
X52680224Y-31625440D01*
X52656399Y-31632667D01*
X52634443Y-31644403D01*
X52615197Y-31660197D01*
X52605320Y-31671305D01*
X43080320Y-43736305D01*
X43066883Y-43757264D01*
X43057792Y-43780441D01*
X43053000Y-43815000D01*
X43053000Y-111515590D01*
X43046346Y-111518346D01*
X42297520Y-112018696D01*
X41660696Y-112655520D01*
X41160346Y-113404346D01*
X40815699Y-114236397D01*
X40640000Y-115119697D01*
X40640000Y-116020303D01*
X40815699Y-116903603D01*
X41160346Y-117735654D01*
X41660696Y-118484480D01*
X42297520Y-119121304D01*
X43046346Y-119621654D01*
X43053000Y-119624410D01*
X43053000Y-215900000D01*
X43055440Y-215924776D01*
X43062667Y-215948601D01*
X43074403Y-215970557D01*
X43090197Y-215989803D01*
X43109443Y-216005597D01*
X43131399Y-216017333D01*
X43155224Y-216024560D01*
X43180000Y-216027000D01*
X77345677Y-216027000D01*
X77372402Y-216298340D01*
X77488594Y-216681374D01*
X77677280Y-217034381D01*
X77931207Y-217343793D01*
X78240619Y-217597720D01*
X78593625Y-217786406D01*
X78976659Y-217902598D01*
X79375000Y-217941831D01*
X79773340Y-217902598D01*
X80156374Y-217786406D01*
X80509381Y-217597720D01*
X80649372Y-217482833D01*
X80929066Y-217669719D01*
X81292496Y-217820257D01*
X81678313Y-217897000D01*
X82071687Y-217897000D01*
X82457504Y-217820257D01*
X82820934Y-217669719D01*
X83125000Y-217466548D01*
X83429066Y-217669719D01*
X83792496Y-217820257D01*
X84178313Y-217897000D01*
X84571687Y-217897000D01*
X84957504Y-217820257D01*
X85320934Y-217669719D01*
X85648014Y-217451171D01*
X85926171Y-217173014D01*
X86144719Y-216845934D01*
X86295257Y-216482504D01*
X86372000Y-216096687D01*
X86372000Y-216027000D01*
X122094318Y-216027000D01*
X122183197Y-216115879D01*
X122200790Y-216204324D01*
X122377900Y-216631905D01*
X122635024Y-217016719D01*
X122962281Y-217343976D01*
X123347095Y-217601100D01*
X123774676Y-217778210D01*
X124228594Y-217868500D01*
X124691406Y-217868500D01*
X125145324Y-217778210D01*
X125572905Y-217601100D01*
X125957719Y-217343976D01*
X126284976Y-217016719D01*
X126542100Y-216631905D01*
X126719210Y-216204324D01*
X126754482Y-216027000D01*
X136160918Y-216027000D01*
X136196190Y-216204324D01*
X136373300Y-216631905D01*
X136630424Y-217016719D01*
X136957681Y-217343976D01*
X137342495Y-217601100D01*
X137770076Y-217778210D01*
X138223994Y-217868500D01*
X138686806Y-217868500D01*
X139140724Y-217778210D01*
X139568305Y-217601100D01*
X139953119Y-217343976D01*
X140280376Y-217016719D01*
X140537500Y-216631905D01*
X140714610Y-216204324D01*
X140749882Y-216027000D01*
X180248000Y-216027000D01*
X180248000Y-216096687D01*
X180324743Y-216482504D01*
X180475281Y-216845934D01*
X180693829Y-217173014D01*
X180971986Y-217451171D01*
X181299066Y-217669719D01*
X181662496Y-217820257D01*
X182048313Y-217897000D01*
X182441687Y-217897000D01*
X182827504Y-217820257D01*
X183190934Y-217669719D01*
X183495000Y-217466548D01*
X183799066Y-217669719D01*
X184162496Y-217820257D01*
X184548313Y-217897000D01*
X184941687Y-217897000D01*
X185327504Y-217820257D01*
X185690934Y-217669719D01*
X185995000Y-217466548D01*
X186299066Y-217669719D01*
X186662496Y-217820257D01*
X187048313Y-217897000D01*
X187441687Y-217897000D01*
X187827504Y-217820257D01*
X188190934Y-217669719D01*
X188518014Y-217451171D01*
X188796171Y-217173014D01*
X189014719Y-216845934D01*
X189165257Y-216482504D01*
X189242000Y-216096687D01*
X189242000Y-216027000D01*
X251512605Y-216027000D01*
X251496498Y-216043107D01*
X251853686Y-216530213D01*
X252513405Y-216888024D01*
X253230253Y-217110255D01*
X253976682Y-217188365D01*
X254724007Y-217119353D01*
X255443508Y-216905871D01*
X256107537Y-216556123D01*
X256146314Y-216530213D01*
X256503502Y-216043107D01*
X405166498Y-216043107D01*
X405523686Y-216530213D01*
X406183405Y-216888024D01*
X406900253Y-217110255D01*
X407646682Y-217188365D01*
X408394007Y-217119353D01*
X409113508Y-216905871D01*
X409777537Y-216556123D01*
X409816314Y-216530213D01*
X410173502Y-216043107D01*
X407670000Y-213539605D01*
X405166498Y-216043107D01*
X256503502Y-216043107D01*
X256487395Y-216027000D01*
X399415000Y-216027000D01*
X399439776Y-216024560D01*
X399463601Y-216017333D01*
X399485557Y-216005597D01*
X399504803Y-215989803D01*
X399525690Y-215962263D01*
X401002579Y-213336682D01*
X403841635Y-213336682D01*
X403910647Y-214084007D01*
X404124129Y-214803508D01*
X404473877Y-215467537D01*
X404499787Y-215506314D01*
X404986893Y-215863502D01*
X407490395Y-213360000D01*
X407849605Y-213360000D01*
X410353107Y-215863502D01*
X410840213Y-215506314D01*
X411198024Y-214846595D01*
X411420255Y-214129747D01*
X411498365Y-213383318D01*
X411429353Y-212635993D01*
X411215871Y-211916492D01*
X410866123Y-211252463D01*
X410840213Y-211213686D01*
X410353107Y-210856498D01*
X407849605Y-213360000D01*
X407490395Y-213360000D01*
X404986893Y-210856498D01*
X404499787Y-211213686D01*
X404141976Y-211873405D01*
X403919745Y-212590253D01*
X403841635Y-213336682D01*
X401002579Y-213336682D01*
X402498710Y-210676893D01*
X405166498Y-210676893D01*
X407670000Y-213180395D01*
X410173502Y-210676893D01*
X409816314Y-210189787D01*
X409156595Y-209831976D01*
X408439747Y-209609745D01*
X407693318Y-209531635D01*
X406945993Y-209600647D01*
X406226492Y-209814129D01*
X405562463Y-210163877D01*
X405523686Y-210189787D01*
X405166498Y-210676893D01*
X402498710Y-210676893D01*
X405240690Y-205802263D01*
X405250710Y-205779472D01*
X405256091Y-205755164D01*
X405257000Y-205740000D01*
X405257000Y-149457148D01*
X407218457Y-149457148D01*
X407494627Y-149875118D01*
X408039557Y-150165649D01*
X408630696Y-150344287D01*
X409245328Y-150404168D01*
X409859831Y-150342990D01*
X410450592Y-150163103D01*
X410989373Y-149875118D01*
X411265543Y-149457148D01*
X409242000Y-147433605D01*
X407218457Y-149457148D01*
X405257000Y-149457148D01*
X405257000Y-147257328D01*
X406091832Y-147257328D01*
X406153010Y-147871831D01*
X406332897Y-148462592D01*
X406620882Y-149001373D01*
X407038852Y-149277543D01*
X409062395Y-147254000D01*
X409421605Y-147254000D01*
X411445148Y-149277543D01*
X411863118Y-149001373D01*
X412153649Y-148456443D01*
X412332287Y-147865304D01*
X412392168Y-147250672D01*
X412330990Y-146636169D01*
X412151103Y-146045408D01*
X411863118Y-145506627D01*
X411445148Y-145230457D01*
X409421605Y-147254000D01*
X409062395Y-147254000D01*
X407038852Y-145230457D01*
X406620882Y-145506627D01*
X406330351Y-146051557D01*
X406151713Y-146642696D01*
X406091832Y-147257328D01*
X405257000Y-147257328D01*
X405257000Y-145050852D01*
X407218457Y-145050852D01*
X409242000Y-147074395D01*
X411265543Y-145050852D01*
X410989373Y-144632882D01*
X410444443Y-144342351D01*
X409853304Y-144163713D01*
X409238672Y-144103832D01*
X408624169Y-144165010D01*
X408033408Y-144344897D01*
X407494627Y-144632882D01*
X407218457Y-145050852D01*
X405257000Y-145050852D01*
X405257000Y-109457148D01*
X407218457Y-109457148D01*
X407494627Y-109875118D01*
X408039557Y-110165649D01*
X408630696Y-110344287D01*
X409245328Y-110404168D01*
X409859831Y-110342990D01*
X410450592Y-110163103D01*
X410989373Y-109875118D01*
X411265543Y-109457148D01*
X409242000Y-107433605D01*
X407218457Y-109457148D01*
X405257000Y-109457148D01*
X405257000Y-107257328D01*
X406091832Y-107257328D01*
X406153010Y-107871831D01*
X406332897Y-108462592D01*
X406620882Y-109001373D01*
X407038852Y-109277543D01*
X409062395Y-107254000D01*
X409421605Y-107254000D01*
X411445148Y-109277543D01*
X411863118Y-109001373D01*
X412153649Y-108456443D01*
X412332287Y-107865304D01*
X412392168Y-107250672D01*
X412330990Y-106636169D01*
X412151103Y-106045408D01*
X411863118Y-105506627D01*
X411445148Y-105230457D01*
X409421605Y-107254000D01*
X409062395Y-107254000D01*
X407038852Y-105230457D01*
X406620882Y-105506627D01*
X406330351Y-106051557D01*
X406151713Y-106642696D01*
X406091832Y-107257328D01*
X405257000Y-107257328D01*
X405257000Y-105050852D01*
X407218457Y-105050852D01*
X409242000Y-107074395D01*
X411265543Y-105050852D01*
X410989373Y-104632882D01*
X410444443Y-104342351D01*
X409853304Y-104163713D01*
X409238672Y-104103832D01*
X408624169Y-104165010D01*
X408033408Y-104344897D01*
X407494627Y-104632882D01*
X407218457Y-105050852D01*
X405257000Y-105050852D01*
X405257000Y-67078594D01*
X407860500Y-67078594D01*
X407860500Y-67541406D01*
X407950790Y-67995324D01*
X408127900Y-68422905D01*
X408385024Y-68807719D01*
X408712281Y-69134976D01*
X409097095Y-69392100D01*
X409524676Y-69569210D01*
X409978594Y-69659500D01*
X410441406Y-69659500D01*
X410895324Y-69569210D01*
X411322905Y-69392100D01*
X411707719Y-69134976D01*
X412034976Y-68807719D01*
X412292100Y-68422905D01*
X412469210Y-67995324D01*
X412559500Y-67541406D01*
X412559500Y-67078594D01*
X412469210Y-66624676D01*
X412292100Y-66197095D01*
X412034976Y-65812281D01*
X411707719Y-65485024D01*
X411322905Y-65227900D01*
X410895324Y-65050790D01*
X410441406Y-64960500D01*
X409978594Y-64960500D01*
X409524676Y-65050790D01*
X409097095Y-65227900D01*
X408712281Y-65485024D01*
X408385024Y-65812281D01*
X408127900Y-66197095D01*
X407950790Y-66624676D01*
X407860500Y-67078594D01*
X405257000Y-67078594D01*
X405257000Y-43307000D01*
X413868001Y-43307000D01*
X413868000Y-219558000D01*
X386966930Y-219558000D01*
X387093210Y-219435606D01*
X387264862Y-219187204D01*
X387384755Y-218910087D01*
X387409036Y-218804740D01*
X387288378Y-218567000D01*
X385445000Y-218567000D01*
X385445000Y-218587000D01*
X385191000Y-218587000D01*
X385191000Y-218567000D01*
X383347622Y-218567000D01*
X383226964Y-218804740D01*
X383251245Y-218910087D01*
X383371138Y-219187204D01*
X383542790Y-219435606D01*
X383669070Y-219558000D01*
X381886930Y-219558000D01*
X382013210Y-219435606D01*
X382184862Y-219187204D01*
X382304755Y-218910087D01*
X382329036Y-218804740D01*
X382208378Y-218567000D01*
X380365000Y-218567000D01*
X380365000Y-218587000D01*
X380111000Y-218587000D01*
X380111000Y-218567000D01*
X378267622Y-218567000D01*
X378146964Y-218804740D01*
X378171245Y-218910087D01*
X378291138Y-219187204D01*
X378462790Y-219435606D01*
X378589070Y-219558000D01*
X29362000Y-219558000D01*
X29362000Y-218075260D01*
X378146964Y-218075260D01*
X378267622Y-218313000D01*
X380111000Y-218313000D01*
X380111000Y-216905000D01*
X380365000Y-216905000D01*
X380365000Y-218313000D01*
X382208378Y-218313000D01*
X382329036Y-218075260D01*
X383226964Y-218075260D01*
X383347622Y-218313000D01*
X385191000Y-218313000D01*
X385191000Y-216905000D01*
X385445000Y-216905000D01*
X385445000Y-218313000D01*
X387288378Y-218313000D01*
X387409036Y-218075260D01*
X387384755Y-217969913D01*
X387264862Y-217692796D01*
X387093210Y-217444394D01*
X386876396Y-217234252D01*
X386622751Y-217070446D01*
X386342023Y-216959271D01*
X386045000Y-216905000D01*
X385445000Y-216905000D01*
X385191000Y-216905000D01*
X384591000Y-216905000D01*
X384293977Y-216959271D01*
X384013249Y-217070446D01*
X383759604Y-217234252D01*
X383542790Y-217444394D01*
X383371138Y-217692796D01*
X383251245Y-217969913D01*
X383226964Y-218075260D01*
X382329036Y-218075260D01*
X382304755Y-217969913D01*
X382184862Y-217692796D01*
X382013210Y-217444394D01*
X381796396Y-217234252D01*
X381542751Y-217070446D01*
X381262023Y-216959271D01*
X380965000Y-216905000D01*
X380365000Y-216905000D01*
X380111000Y-216905000D01*
X379511000Y-216905000D01*
X379213977Y-216959271D01*
X378933249Y-217070446D01*
X378679604Y-217234252D01*
X378462790Y-217444394D01*
X378291138Y-217692796D01*
X378171245Y-217969913D01*
X378146964Y-218075260D01*
X29362000Y-218075260D01*
X29362000Y-216043107D01*
X33056498Y-216043107D01*
X33413686Y-216530213D01*
X34073405Y-216888024D01*
X34790253Y-217110255D01*
X35536682Y-217188365D01*
X36284007Y-217119353D01*
X37003508Y-216905871D01*
X37667537Y-216556123D01*
X37706314Y-216530213D01*
X38063502Y-216043107D01*
X35560000Y-213539605D01*
X33056498Y-216043107D01*
X29362000Y-216043107D01*
X29362000Y-213336682D01*
X31731635Y-213336682D01*
X31800647Y-214084007D01*
X32014129Y-214803508D01*
X32363877Y-215467537D01*
X32389787Y-215506314D01*
X32876893Y-215863502D01*
X35380395Y-213360000D01*
X35739605Y-213360000D01*
X38243107Y-215863502D01*
X38730213Y-215506314D01*
X39088024Y-214846595D01*
X39310255Y-214129747D01*
X39388365Y-213383318D01*
X39319353Y-212635993D01*
X39105871Y-211916492D01*
X38756123Y-211252463D01*
X38730213Y-211213686D01*
X38243107Y-210856498D01*
X35739605Y-213360000D01*
X35380395Y-213360000D01*
X32876893Y-210856498D01*
X32389787Y-211213686D01*
X32031976Y-211873405D01*
X31809745Y-212590253D01*
X31731635Y-213336682D01*
X29362000Y-213336682D01*
X29362000Y-210676893D01*
X33056498Y-210676893D01*
X35560000Y-213180395D01*
X38063502Y-210676893D01*
X37706314Y-210189787D01*
X37046595Y-209831976D01*
X36329747Y-209609745D01*
X35583318Y-209531635D01*
X34835993Y-209600647D01*
X34116492Y-209814129D01*
X33452463Y-210163877D01*
X33413686Y-210189787D01*
X33056498Y-210676893D01*
X29362000Y-210676893D01*
X29362000Y-38243107D01*
X33056498Y-38243107D01*
X33413686Y-38730213D01*
X34073405Y-39088024D01*
X34790253Y-39310255D01*
X35536682Y-39388365D01*
X36284007Y-39319353D01*
X37003508Y-39105871D01*
X37667537Y-38756123D01*
X37706314Y-38730213D01*
X38063502Y-38243107D01*
X35560000Y-35739605D01*
X33056498Y-38243107D01*
X29362000Y-38243107D01*
X29362000Y-35536682D01*
X31731635Y-35536682D01*
X31800647Y-36284007D01*
X32014129Y-37003508D01*
X32363877Y-37667537D01*
X32389787Y-37706314D01*
X32876893Y-38063502D01*
X35380395Y-35560000D01*
X35739605Y-35560000D01*
X38243107Y-38063502D01*
X38730213Y-37706314D01*
X39088024Y-37046595D01*
X39310255Y-36329747D01*
X39388365Y-35583318D01*
X39319353Y-34835993D01*
X39105871Y-34116492D01*
X38756123Y-33452463D01*
X38730213Y-33413686D01*
X38243107Y-33056498D01*
X35739605Y-35560000D01*
X35380395Y-35560000D01*
X32876893Y-33056498D01*
X32389787Y-33413686D01*
X32031976Y-34073405D01*
X31809745Y-34790253D01*
X31731635Y-35536682D01*
X29362000Y-35536682D01*
X29362000Y-32876893D01*
X33056498Y-32876893D01*
X35560000Y-35380395D01*
X38063502Y-32876893D01*
X37706314Y-32389787D01*
X37046595Y-32031976D01*
X36329747Y-31809745D01*
X35583318Y-31731635D01*
X34835993Y-31800647D01*
X34116492Y-32014129D01*
X33452463Y-32363877D01*
X33413686Y-32389787D01*
X33056498Y-32876893D01*
X29362000Y-32876893D01*
X29362000Y-29362000D01*
X413868001Y-29362000D01*
X413868001Y-41783000D01*
G37*
%TD.AperFunction*%
%TD*%
M02*
