%TF.GenerationSoftware,KiCad,Pcbnew,5.1.8-db9833491~88~ubuntu20.04.1*%
%TF.CreationDate,2021-01-02T13:56:59-05:00*%
%TF.ProjectId,amp,616d702e-6b69-4636-9164-5f7063625858,rev?*%
%TF.SameCoordinates,Original*%
%TF.FileFunction,Soldermask,Top*%
%TF.FilePolarity,Negative*%
%FSLAX46Y46*%
G04 Gerber Fmt 4.6, Leading zero omitted, Abs format (unit mm)*
G04 Created by KiCad (PCBNEW 5.1.8-db9833491~88~ubuntu20.04.1) date 2021-01-02 13:56:59*
%MOMM*%
%LPD*%
G01*
G04 APERTURE LIST*
%ADD10C,1.905000*%
%ADD11O,12.700000X6.350000*%
%ADD12C,6.350000*%
%ADD13O,3.000000X1.800000*%
%ADD14C,5.000000*%
%ADD15C,2.600000*%
%ADD16O,8.890000X15.240000*%
%ADD17C,2.540000*%
%ADD18C,8.890000*%
%ADD19C,1.778000*%
%ADD20C,2.400000*%
%ADD21R,2.400000X2.400000*%
%ADD22C,12.800000*%
%ADD23C,1.600000*%
%ADD24R,1.600000X1.600000*%
%ADD25R,2.540000X2.540000*%
%ADD26C,3.810000*%
%ADD27O,1.600000X1.600000*%
%ADD28C,2.000000*%
%ADD29C,1.016000*%
%ADD30O,2.400000X2.400000*%
%ADD31C,1.200000*%
G04 APERTURE END LIST*
D10*
%TO.C,T2*%
X194945000Y-85725000D03*
X200025000Y-85725000D03*
X205105000Y-85725000D03*
X205105000Y-145415000D03*
X200025000Y-145415000D03*
X194945000Y-145415000D03*
D11*
X182245000Y-86995000D03*
X182245000Y-144145000D03*
D12*
X147447000Y-114935000D03*
X219075000Y-114935000D03*
%TD*%
D10*
%TO.C,T1*%
X92710000Y-86360000D03*
X97790000Y-86360000D03*
X102870000Y-86360000D03*
X102870000Y-146050000D03*
X97790000Y-146050000D03*
X92710000Y-146050000D03*
D11*
X80010000Y-87630000D03*
X80010000Y-144780000D03*
D12*
X45212000Y-115570000D03*
X116840000Y-115570000D03*
%TD*%
D13*
%TO.C,SW1*%
X385318000Y-218440000D03*
X380238000Y-218440000D03*
X382778000Y-200660000D03*
X382778000Y-203200000D03*
X382778000Y-205740000D03*
%TD*%
D14*
%TO.C,J1*%
X409242000Y-107254000D03*
X409242000Y-147254000D03*
D15*
X399542000Y-118204000D03*
X399542000Y-127254000D03*
X399542000Y-136304000D03*
%TD*%
D16*
%TO.C,T3*%
X353060000Y-120650000D03*
X289560000Y-120650000D03*
D17*
X373380000Y-125730000D03*
X373380000Y-130810000D03*
X373380000Y-135890000D03*
X373380000Y-140970000D03*
X373380000Y-100330000D03*
X373380000Y-105410000D03*
X373380000Y-110490000D03*
X269240000Y-107950000D03*
X269240000Y-113030000D03*
X269240000Y-128270000D03*
X269240000Y-133350000D03*
X269240000Y-138430000D03*
D18*
X353060000Y-95250000D03*
X289560000Y-95250000D03*
X353060000Y-146050000D03*
X289560000Y-146050000D03*
%TD*%
D12*
%TO.C,LS2*%
X227965000Y-36830000D03*
X247015000Y-36830000D03*
%TD*%
D19*
%TO.C,L1*%
X311785000Y-68580000D03*
X294005000Y-68580000D03*
D12*
X329565000Y-50800000D03*
X273685000Y-50800000D03*
%TD*%
D19*
%TO.C,L2*%
X89535000Y-69850000D03*
X71755000Y-69850000D03*
D12*
X104775000Y-52070000D03*
X53975000Y-52070000D03*
%TD*%
D19*
%TO.C,L3*%
X193040000Y-68580000D03*
X175260000Y-68580000D03*
D12*
X208280000Y-50800000D03*
X157480000Y-50800000D03*
%TD*%
D20*
%TO.C,C6*%
X287020000Y-179625000D03*
D21*
X287020000Y-174625000D03*
%TD*%
D22*
%TO.C,H6*%
X408305000Y-34925000D03*
%TD*%
%TO.C,H5*%
X407670000Y-213360000D03*
%TD*%
%TO.C,H4*%
X35560000Y-213360000D03*
%TD*%
%TO.C,H3*%
X254000000Y-57150000D03*
%TD*%
%TO.C,H2*%
X35560000Y-35560000D03*
%TD*%
%TO.C,H1*%
X254000000Y-213360000D03*
%TD*%
D23*
%TO.C,C4*%
X216535000Y-210510000D03*
D24*
X216535000Y-207010000D03*
%TD*%
D17*
%TO.C,U3*%
X327025000Y-179705000D03*
X324485000Y-184785000D03*
X319405000Y-184785000D03*
X314325000Y-184785000D03*
X311785000Y-179705000D03*
X311785000Y-174625000D03*
X314325000Y-169545000D03*
X319405000Y-169545000D03*
D25*
X324485000Y-169545000D03*
%TD*%
D26*
%TO.C,J2*%
X148361400Y-212013800D03*
X122047000Y-212013800D03*
D10*
X138455400Y-215519000D03*
X138455400Y-208280000D03*
X124460000Y-215519000D03*
X124460000Y-208280000D03*
%TD*%
D23*
%TO.C,C1*%
X90805000Y-168275000D03*
D27*
X70805000Y-168275000D03*
%TD*%
D23*
%TO.C,C2*%
X108585000Y-201620000D03*
D24*
X108585000Y-198120000D03*
%TD*%
D27*
%TO.C,C3*%
X172405000Y-168275000D03*
D23*
X192405000Y-168275000D03*
%TD*%
D28*
%TO.C,C5*%
X359918000Y-45212000D03*
X359918000Y-35212000D03*
%TD*%
D21*
%TO.C,C7*%
X260985000Y-76200000D03*
D20*
X260985000Y-83700000D03*
%TD*%
%TO.C,C8*%
X120650000Y-161805000D03*
D21*
X120650000Y-154305000D03*
%TD*%
%TO.C,C9*%
X224155000Y-152400000D03*
D20*
X224155000Y-159900000D03*
%TD*%
D10*
%TO.C,F1*%
X377190000Y-67310000D03*
X392430000Y-67310000D03*
X410210000Y-67310000D03*
%TD*%
D12*
%TO.C,LS1*%
X140970000Y-36830000D03*
X121920000Y-36830000D03*
%TD*%
D29*
%TO.C,NE1*%
X363855000Y-210185000D03*
X366395000Y-210185000D03*
%TD*%
D20*
%TO.C,R1*%
X61595000Y-198120000D03*
D30*
X61595000Y-213360000D03*
%TD*%
%TO.C,R2*%
X73660000Y-157480000D03*
D20*
X88900000Y-157480000D03*
%TD*%
%TO.C,R3*%
X111125000Y-174625000D03*
D30*
X111125000Y-189865000D03*
%TD*%
%TO.C,R4*%
X101600000Y-174625000D03*
D20*
X101600000Y-189865000D03*
%TD*%
%TO.C,R5*%
X97790000Y-198120000D03*
D30*
X97790000Y-213360000D03*
%TD*%
%TO.C,R6*%
X164592000Y-208788000D03*
D20*
X164592000Y-193548000D03*
%TD*%
%TO.C,R7*%
X189865000Y-157480000D03*
D30*
X174625000Y-157480000D03*
%TD*%
%TO.C,R8*%
X211455000Y-189865000D03*
D20*
X211455000Y-174625000D03*
%TD*%
%TO.C,R9*%
X201930000Y-189865000D03*
D30*
X201930000Y-174625000D03*
%TD*%
%TO.C,R10*%
X203835000Y-213360000D03*
D20*
X203835000Y-198120000D03*
%TD*%
%TO.C,R11*%
X370586000Y-35306000D03*
D30*
X370586000Y-50546000D03*
%TD*%
D20*
%TO.C,R12*%
X61595000Y-175895000D03*
D30*
X61595000Y-191135000D03*
%TD*%
%TO.C,R13*%
X52070000Y-191135000D03*
D20*
X52070000Y-175895000D03*
%TD*%
D30*
%TO.C,R14*%
X287020000Y-196850000D03*
D20*
X302260000Y-196850000D03*
%TD*%
%TO.C,R15*%
X363855000Y-198755000D03*
D30*
X363855000Y-183515000D03*
%TD*%
D31*
%TO.C,RV1*%
X79375000Y-215900000D03*
X81875000Y-215900000D03*
X84375000Y-215900000D03*
%TD*%
%TO.C,RV2*%
X187245000Y-215900000D03*
X184745000Y-215900000D03*
X182245000Y-215900000D03*
%TD*%
D25*
%TO.C,U1*%
X88265000Y-193675000D03*
D17*
X88265000Y-188595000D03*
X88265000Y-183515000D03*
X83185000Y-180975000D03*
X78105000Y-180975000D03*
X73025000Y-183515000D03*
X73025000Y-188595000D03*
X73025000Y-193675000D03*
X78105000Y-196215000D03*
%TD*%
D25*
%TO.C,U2*%
X189865000Y-193675000D03*
D17*
X189865000Y-188595000D03*
X189865000Y-183515000D03*
X184785000Y-180975000D03*
X179705000Y-180975000D03*
X174625000Y-183515000D03*
X174625000Y-188595000D03*
X174625000Y-193675000D03*
X179705000Y-196215000D03*
%TD*%
M02*
