%TF.GenerationSoftware,KiCad,Pcbnew,5.1.8-db9833491~88~ubuntu20.04.1*%
%TF.CreationDate,2021-01-02T16:42:33-05:00*%
%TF.ProjectId,amp,616d702e-6b69-4636-9164-5f7063625858,rev?*%
%TF.SameCoordinates,Original*%
%TF.FileFunction,Copper,L1,Top*%
%TF.FilePolarity,Positive*%
%FSLAX46Y46*%
G04 Gerber Fmt 4.6, Leading zero omitted, Abs format (unit mm)*
G04 Created by KiCad (PCBNEW 5.1.8-db9833491~88~ubuntu20.04.1) date 2021-01-02 16:42:33*
%MOMM*%
%LPD*%
G01*
G04 APERTURE LIST*
%TA.AperFunction,ComponentPad*%
%ADD10C,6.350000*%
%TD*%
%TA.AperFunction,ComponentPad*%
%ADD11C,1.905000*%
%TD*%
%TA.AperFunction,ComponentPad*%
%ADD12O,12.700000X6.350000*%
%TD*%
%TA.AperFunction,ComponentPad*%
%ADD13O,3.000000X1.800000*%
%TD*%
%TA.AperFunction,ComponentPad*%
%ADD14C,5.000000*%
%TD*%
%TA.AperFunction,ComponentPad*%
%ADD15C,2.600000*%
%TD*%
%TA.AperFunction,ComponentPad*%
%ADD16O,8.890000X15.240000*%
%TD*%
%TA.AperFunction,ComponentPad*%
%ADD17C,2.540000*%
%TD*%
%TA.AperFunction,ComponentPad*%
%ADD18C,8.890000*%
%TD*%
%TA.AperFunction,ComponentPad*%
%ADD19C,1.778000*%
%TD*%
%TA.AperFunction,ComponentPad*%
%ADD20C,2.400000*%
%TD*%
%TA.AperFunction,ComponentPad*%
%ADD21R,2.400000X2.400000*%
%TD*%
%TA.AperFunction,ComponentPad*%
%ADD22C,1.600000*%
%TD*%
%TA.AperFunction,ComponentPad*%
%ADD23R,1.600000X1.600000*%
%TD*%
%TA.AperFunction,ComponentPad*%
%ADD24R,2.540000X2.540000*%
%TD*%
%TA.AperFunction,ComponentPad*%
%ADD25C,3.810000*%
%TD*%
%TA.AperFunction,ComponentPad*%
%ADD26O,1.600000X1.600000*%
%TD*%
%TA.AperFunction,ComponentPad*%
%ADD27C,2.000000*%
%TD*%
%TA.AperFunction,ComponentPad*%
%ADD28C,1.016000*%
%TD*%
%TA.AperFunction,ComponentPad*%
%ADD29O,2.400000X2.400000*%
%TD*%
%TA.AperFunction,ComponentPad*%
%ADD30C,1.200000*%
%TD*%
%TA.AperFunction,ViaPad*%
%ADD31C,0.800000*%
%TD*%
%TA.AperFunction,Conductor*%
%ADD32C,0.762000*%
%TD*%
%TA.AperFunction,Conductor*%
%ADD33C,2.540000*%
%TD*%
%TA.AperFunction,Conductor*%
%ADD34C,1.270000*%
%TD*%
%TA.AperFunction,Conductor*%
%ADD35C,1.905000*%
%TD*%
G04 APERTURE END LIST*
D10*
%TO.P,H6,1*%
%TO.N,Earth_Protective*%
X408305000Y-34925000D03*
%TD*%
%TO.P,H5,1*%
%TO.N,Earth_Protective*%
X407670000Y-213360000D03*
%TD*%
%TO.P,H4,1*%
%TO.N,Earth_Protective*%
X35560000Y-213360000D03*
%TD*%
%TO.P,H3,1*%
%TO.N,Earth_Protective*%
X261620000Y-34925000D03*
%TD*%
%TO.P,H2,1*%
%TO.N,Earth_Protective*%
X35560000Y-35560000D03*
%TD*%
%TO.P,H1,1*%
%TO.N,Earth_Protective*%
X254000000Y-213360000D03*
%TD*%
D11*
%TO.P,T2,6*%
%TO.N,Net-(LS2-Pad2)*%
X194945000Y-85725000D03*
%TO.P,T2,5*%
%TO.N,Net-(T2-Pad5)*%
X200025000Y-85725000D03*
%TO.P,T2,4*%
%TO.N,Net-(LS2-Pad1)*%
X205105000Y-85725000D03*
%TO.P,T2,3*%
%TO.N,Net-(T2-Pad3)*%
X205105000Y-145415000D03*
%TO.P,T2,2*%
%TO.N,Net-(T2-Pad2)*%
X200025000Y-145415000D03*
%TO.P,T2,1*%
%TO.N,VBUS*%
X194945000Y-145415000D03*
D12*
%TO.P,T2,13*%
%TO.N,N/C*%
X182245000Y-86995000D03*
%TO.P,T2,12*%
X182245000Y-144145000D03*
D10*
%TO.P,T2,11*%
X147447000Y-114935000D03*
%TO.P,T2,10*%
X219075000Y-114935000D03*
%TD*%
D11*
%TO.P,T1,6*%
%TO.N,Net-(LS1-Pad2)*%
X92710000Y-86360000D03*
%TO.P,T1,5*%
%TO.N,Net-(T1-Pad5)*%
X97790000Y-86360000D03*
%TO.P,T1,4*%
%TO.N,Net-(LS1-Pad1)*%
X102870000Y-86360000D03*
%TO.P,T1,3*%
%TO.N,Net-(T1-Pad3)*%
X102870000Y-146050000D03*
%TO.P,T1,2*%
%TO.N,Net-(T1-Pad2)*%
X97790000Y-146050000D03*
%TO.P,T1,1*%
%TO.N,HT*%
X92710000Y-146050000D03*
D12*
%TO.P,T1,13*%
%TO.N,N/C*%
X80010000Y-87630000D03*
%TO.P,T1,12*%
X80010000Y-144780000D03*
D10*
%TO.P,T1,11*%
X45212000Y-115570000D03*
%TO.P,T1,10*%
X116840000Y-115570000D03*
%TD*%
D13*
%TO.P,SW1,5*%
%TO.N,Earth_Protective*%
X385318000Y-218440000D03*
%TO.P,SW1,4*%
X380238000Y-218440000D03*
%TO.P,SW1,3*%
%TO.N,N/C*%
X382778000Y-200660000D03*
%TO.P,SW1,2*%
%TO.N,LINE*%
X382778000Y-203200000D03*
%TO.P,SW1,1*%
%TO.N,Net-(F1-Pad1)*%
X382778000Y-205740000D03*
%TD*%
D14*
%TO.P,J1,5*%
%TO.N,Earth_Protective*%
X409242000Y-107254000D03*
%TO.P,J1,4*%
X409242000Y-147254000D03*
D15*
%TO.P,J1,3*%
%TO.N,NEUT*%
X399542000Y-118204000D03*
%TO.P,J1,2*%
%TO.N,Earth_Protective*%
X399542000Y-127254000D03*
%TO.P,J1,1*%
%TO.N,/L*%
X399542000Y-136304000D03*
%TD*%
D16*
%TO.P,T3,26*%
%TO.N,N/C*%
X353060000Y-120650000D03*
%TO.P,T3,25*%
X289560000Y-120650000D03*
D17*
%TO.P,T3,7*%
%TO.N,Net-(T3-Pad7)*%
X373380000Y-125730000D03*
%TO.P,T3,6*%
%TO.N,Net-(T3-Pad6)*%
X373380000Y-130810000D03*
%TO.P,T3,5*%
%TO.N,Earth*%
X373380000Y-135890000D03*
%TO.P,T3,4*%
%TO.N,Net-(T3-Pad4)*%
X373380000Y-140970000D03*
%TO.P,T3,3*%
%TO.N,LINE*%
X373380000Y-100330000D03*
%TO.P,T3,2*%
%TO.N,Net-(T3-Pad2)*%
X373380000Y-105410000D03*
%TO.P,T3,1*%
%TO.N,NEUT*%
X373380000Y-110490000D03*
%TO.P,T3,12*%
%TO.N,Net-(R12-Pad1)*%
X269240000Y-107950000D03*
%TO.P,T3,11*%
%TO.N,Net-(R13-Pad1)*%
X269240000Y-113030000D03*
%TO.P,T3,10*%
%TO.N,Net-(T3-Pad10)*%
X269240000Y-128270000D03*
%TO.P,T3,9*%
%TO.N,Net-(T3-Pad9)*%
X269240000Y-133350000D03*
%TO.P,T3,8*%
%TO.N,Net-(R14-Pad1)*%
X269240000Y-138430000D03*
D18*
%TO.P,T3,23*%
%TO.N,N/C*%
X353060000Y-95250000D03*
%TO.P,T3,22*%
X289560000Y-95250000D03*
%TO.P,T3,21*%
X353060000Y-146050000D03*
%TO.P,T3,20*%
X289560000Y-146050000D03*
%TD*%
D10*
%TO.P,LS2,2*%
%TO.N,Net-(LS2-Pad2)*%
X227965000Y-36830000D03*
%TO.P,LS2,1*%
%TO.N,Net-(LS2-Pad1)*%
X247015000Y-36830000D03*
%TD*%
D19*
%TO.P,L1,2*%
%TO.N,Net-(C6-Pad1)*%
X311785000Y-68580000D03*
%TO.P,L1,1*%
%TO.N,Net-(C7-Pad1)*%
X294005000Y-68580000D03*
D10*
%TO.P,L1,4*%
%TO.N,N/C*%
X329565000Y-50800000D03*
%TO.P,L1,3*%
X273685000Y-50800000D03*
%TD*%
D19*
%TO.P,L2,2*%
%TO.N,HT*%
X89535000Y-69850000D03*
%TO.P,L2,1*%
%TO.N,Net-(C7-Pad1)*%
X71755000Y-69850000D03*
D10*
%TO.P,L2,4*%
%TO.N,N/C*%
X104775000Y-52070000D03*
%TO.P,L2,3*%
X53975000Y-52070000D03*
%TD*%
D19*
%TO.P,L3,2*%
%TO.N,VBUS*%
X193040000Y-68580000D03*
%TO.P,L3,1*%
%TO.N,Net-(C7-Pad1)*%
X175260000Y-68580000D03*
D10*
%TO.P,L3,4*%
%TO.N,N/C*%
X208280000Y-50800000D03*
%TO.P,L3,3*%
X157480000Y-50800000D03*
%TD*%
D20*
%TO.P,C6,2*%
%TO.N,Earth*%
X287020000Y-179625000D03*
D21*
%TO.P,C6,1*%
%TO.N,Net-(C6-Pad1)*%
X287020000Y-174625000D03*
%TD*%
D22*
%TO.P,C4,2*%
%TO.N,Earth*%
X216535000Y-210510000D03*
D23*
%TO.P,C4,1*%
%TO.N,Net-(C4-Pad1)*%
X216535000Y-207010000D03*
%TD*%
D17*
%TO.P,U3,9*%
%TO.N,N/C*%
X327025000Y-179705000D03*
%TO.P,U3,8*%
X324485000Y-184785000D03*
%TO.P,U3,7*%
%TO.N,Net-(T3-Pad4)*%
X319405000Y-184785000D03*
%TO.P,U3,6*%
%TO.N,N/C*%
X314325000Y-184785000D03*
%TO.P,U3,5*%
%TO.N,Net-(R14-Pad1)*%
X311785000Y-179705000D03*
%TO.P,U3,4*%
%TO.N,Net-(T3-Pad10)*%
X311785000Y-174625000D03*
%TO.P,U3,3*%
%TO.N,Net-(C6-Pad1)*%
X314325000Y-169545000D03*
%TO.P,U3,2*%
%TO.N,N/C*%
X319405000Y-169545000D03*
D24*
%TO.P,U3,1*%
%TO.N,Net-(T3-Pad7)*%
X324485000Y-169545000D03*
%TD*%
D25*
%TO.P,J2,6*%
%TO.N,Earth*%
X148361400Y-212013800D03*
%TO.P,J2,5*%
X122047000Y-212013800D03*
D11*
%TO.P,J2,4*%
X138455400Y-215519000D03*
%TO.P,J2,3*%
%TO.N,Net-(J2-Pad3)*%
X138455400Y-208280000D03*
%TO.P,J2,2*%
%TO.N,Earth*%
X124460000Y-215519000D03*
%TO.P,J2,1*%
%TO.N,Net-(J2-Pad1)*%
X124460000Y-208280000D03*
%TD*%
D22*
%TO.P,C1,1*%
%TO.N,Net-(C1-Pad1)*%
X90805000Y-168275000D03*
D26*
%TO.P,C1,2*%
%TO.N,Net-(C1-Pad2)*%
X70805000Y-168275000D03*
%TD*%
D22*
%TO.P,C2,2*%
%TO.N,Earth*%
X108585000Y-201620000D03*
D23*
%TO.P,C2,1*%
%TO.N,Net-(C2-Pad1)*%
X108585000Y-198120000D03*
%TD*%
D26*
%TO.P,C3,2*%
%TO.N,Net-(C3-Pad2)*%
X172405000Y-168275000D03*
D22*
%TO.P,C3,1*%
%TO.N,Net-(C3-Pad1)*%
X192405000Y-168275000D03*
%TD*%
D27*
%TO.P,C5,1*%
%TO.N,Earth*%
X359918000Y-45212000D03*
%TO.P,C5,2*%
%TO.N,Earth_Protective*%
X359918000Y-35212000D03*
%TD*%
D21*
%TO.P,C7,1*%
%TO.N,Net-(C7-Pad1)*%
X260985000Y-76200000D03*
D20*
%TO.P,C7,2*%
%TO.N,Earth*%
X260985000Y-83700000D03*
%TD*%
%TO.P,C8,2*%
%TO.N,Earth*%
X120650000Y-161805000D03*
D21*
%TO.P,C8,1*%
%TO.N,HT*%
X120650000Y-154305000D03*
%TD*%
%TO.P,C9,1*%
%TO.N,VBUS*%
X224155000Y-152400000D03*
D20*
%TO.P,C9,2*%
%TO.N,Earth*%
X224155000Y-159900000D03*
%TD*%
D11*
%TO.P,F1,1*%
%TO.N,Net-(F1-Pad1)*%
X377190000Y-67310000D03*
%TO.P,F1,2*%
%TO.N,/L*%
X392430000Y-67310000D03*
%TO.P,F1,3*%
%TO.N,N/C*%
X410210000Y-67310000D03*
%TD*%
D10*
%TO.P,LS1,1*%
%TO.N,Net-(LS1-Pad1)*%
X140970000Y-36830000D03*
%TO.P,LS1,2*%
%TO.N,Net-(LS1-Pad2)*%
X121920000Y-36830000D03*
%TD*%
D28*
%TO.P,NE1,1*%
%TO.N,Net-(NE1-Pad1)*%
X363855000Y-210185000D03*
%TO.P,NE1,2*%
%TO.N,LINE*%
X366395000Y-210185000D03*
%TD*%
D20*
%TO.P,R1,1*%
%TO.N,Net-(R1-Pad1)*%
X61595000Y-198120000D03*
D29*
%TO.P,R1,2*%
%TO.N,Earth*%
X61595000Y-213360000D03*
%TD*%
%TO.P,R2,2*%
%TO.N,Net-(C1-Pad2)*%
X73660000Y-157480000D03*
D20*
%TO.P,R2,1*%
%TO.N,HT*%
X88900000Y-157480000D03*
%TD*%
%TO.P,R3,1*%
%TO.N,Net-(C1-Pad1)*%
X111125000Y-174625000D03*
D29*
%TO.P,R3,2*%
%TO.N,Earth*%
X111125000Y-189865000D03*
%TD*%
%TO.P,R4,2*%
%TO.N,Net-(C1-Pad1)*%
X101600000Y-174625000D03*
D20*
%TO.P,R4,1*%
%TO.N,Net-(R4-Pad1)*%
X101600000Y-189865000D03*
%TD*%
%TO.P,R5,1*%
%TO.N,Net-(C2-Pad1)*%
X97790000Y-198120000D03*
D29*
%TO.P,R5,2*%
%TO.N,Earth*%
X97790000Y-213360000D03*
%TD*%
%TO.P,R6,2*%
%TO.N,Earth*%
X164592000Y-208788000D03*
D20*
%TO.P,R6,1*%
%TO.N,Net-(R6-Pad1)*%
X164592000Y-193548000D03*
%TD*%
%TO.P,R7,1*%
%TO.N,VBUS*%
X189865000Y-157480000D03*
D29*
%TO.P,R7,2*%
%TO.N,Net-(C3-Pad2)*%
X174625000Y-157480000D03*
%TD*%
%TO.P,R8,2*%
%TO.N,Earth*%
X211455000Y-189865000D03*
D20*
%TO.P,R8,1*%
%TO.N,Net-(C3-Pad1)*%
X211455000Y-174625000D03*
%TD*%
%TO.P,R9,1*%
%TO.N,Net-(R9-Pad1)*%
X201930000Y-189865000D03*
D29*
%TO.P,R9,2*%
%TO.N,Net-(C3-Pad1)*%
X201930000Y-174625000D03*
%TD*%
%TO.P,R10,2*%
%TO.N,Earth*%
X203835000Y-213360000D03*
D20*
%TO.P,R10,1*%
%TO.N,Net-(C4-Pad1)*%
X203835000Y-198120000D03*
%TD*%
%TO.P,R11,1*%
%TO.N,Earth_Protective*%
X370586000Y-35306000D03*
D29*
%TO.P,R11,2*%
%TO.N,Earth*%
X370586000Y-50546000D03*
%TD*%
D20*
%TO.P,R12,1*%
%TO.N,Net-(R12-Pad1)*%
X61595000Y-175895000D03*
D29*
%TO.P,R12,2*%
%TO.N,Earth*%
X61595000Y-191135000D03*
%TD*%
%TO.P,R13,2*%
%TO.N,Earth*%
X52070000Y-191135000D03*
D20*
%TO.P,R13,1*%
%TO.N,Net-(R13-Pad1)*%
X52070000Y-175895000D03*
%TD*%
D29*
%TO.P,R14,2*%
%TO.N,Earth*%
X287020000Y-196850000D03*
D20*
%TO.P,R14,1*%
%TO.N,Net-(R14-Pad1)*%
X302260000Y-196850000D03*
%TD*%
%TO.P,R15,1*%
%TO.N,Net-(NE1-Pad1)*%
X363855000Y-198755000D03*
D29*
%TO.P,R15,2*%
%TO.N,NEUT*%
X363855000Y-183515000D03*
%TD*%
D30*
%TO.P,RV1,1*%
%TO.N,Earth*%
X79375000Y-215900000D03*
%TO.P,RV1,2*%
%TO.N,Net-(RV1-Pad2)*%
X81875000Y-215900000D03*
%TO.P,RV1,3*%
%TO.N,Net-(J2-Pad1)*%
X84375000Y-215900000D03*
%TD*%
%TO.P,RV2,3*%
%TO.N,Net-(J2-Pad3)*%
X187245000Y-215900000D03*
%TO.P,RV2,2*%
%TO.N,Net-(RV2-Pad2)*%
X184745000Y-215900000D03*
%TO.P,RV2,1*%
%TO.N,Earth*%
X182245000Y-215900000D03*
%TD*%
D24*
%TO.P,U1,1*%
%TO.N,Net-(T1-Pad2)*%
X88265000Y-193675000D03*
D17*
%TO.P,U1,2*%
%TO.N,N/C*%
X88265000Y-188595000D03*
%TO.P,U1,3*%
%TO.N,Net-(R4-Pad1)*%
X88265000Y-183515000D03*
%TO.P,U1,4*%
%TO.N,Net-(R12-Pad1)*%
X83185000Y-180975000D03*
%TO.P,U1,5*%
%TO.N,Net-(R13-Pad1)*%
X78105000Y-180975000D03*
%TO.P,U1,6*%
%TO.N,Net-(C1-Pad2)*%
X73025000Y-183515000D03*
%TO.P,U1,7*%
%TO.N,Net-(RV1-Pad2)*%
X73025000Y-188595000D03*
%TO.P,U1,8*%
%TO.N,Net-(R1-Pad1)*%
X73025000Y-193675000D03*
%TO.P,U1,9*%
%TO.N,Net-(C2-Pad1)*%
X78105000Y-196215000D03*
%TD*%
D24*
%TO.P,U2,1*%
%TO.N,Net-(T2-Pad2)*%
X189865000Y-193675000D03*
D17*
%TO.P,U2,2*%
%TO.N,N/C*%
X189865000Y-188595000D03*
%TO.P,U2,3*%
%TO.N,Net-(R9-Pad1)*%
X189865000Y-183515000D03*
%TO.P,U2,4*%
%TO.N,Net-(R13-Pad1)*%
X184785000Y-180975000D03*
%TO.P,U2,5*%
%TO.N,Net-(R12-Pad1)*%
X179705000Y-180975000D03*
%TO.P,U2,6*%
%TO.N,Net-(C3-Pad2)*%
X174625000Y-183515000D03*
%TO.P,U2,7*%
%TO.N,Net-(RV2-Pad2)*%
X174625000Y-188595000D03*
%TO.P,U2,8*%
%TO.N,Net-(R6-Pad1)*%
X174625000Y-193675000D03*
%TO.P,U2,9*%
%TO.N,Net-(C4-Pad1)*%
X179705000Y-196215000D03*
%TD*%
D31*
%TO.N,Net-(J2-Pad3)*%
X185674000Y-203200000D03*
X175006000Y-203200000D03*
%TO.N,Net-(R12-Pad1)*%
X75438000Y-176022000D03*
X185420000Y-176276000D03*
%TD*%
D32*
%TO.N,Net-(C1-Pad1)*%
X90805000Y-168275000D02*
X95250000Y-168275000D01*
X95250000Y-168275000D02*
X101600000Y-174625000D01*
X101600000Y-174625000D02*
X111125000Y-174625000D01*
%TO.N,Net-(C1-Pad2)*%
X73660000Y-157480000D02*
X73660000Y-160655000D01*
X73660000Y-160655000D02*
X70485000Y-163830000D01*
X70485000Y-163830000D02*
X70485000Y-168275000D01*
X70805000Y-168275000D02*
X70805000Y-181295000D01*
X70805000Y-181295000D02*
X73025000Y-183515000D01*
D33*
%TO.N,Earth*%
X111125000Y-189865000D02*
X119126000Y-181864000D01*
X119126000Y-181864000D02*
X119126000Y-163322000D01*
X119126000Y-163322000D02*
X120396000Y-162052000D01*
X224155000Y-159900000D02*
X224155000Y-177419000D01*
X224155000Y-177419000D02*
X211582000Y-189992000D01*
D34*
X287020000Y-196850000D02*
X287020000Y-179324000D01*
X287020000Y-179324000D02*
X287020000Y-185420000D01*
X359918000Y-45212000D02*
X364998000Y-45212000D01*
X364998000Y-45212000D02*
X370586000Y-50800000D01*
D32*
%TO.N,Net-(C2-Pad1)*%
X78105000Y-196215000D02*
X83185000Y-201295000D01*
X83185000Y-201295000D02*
X91440000Y-201295000D01*
X91440000Y-201295000D02*
X94615000Y-198120000D01*
X94615000Y-198120000D02*
X97790000Y-198120000D01*
X97790000Y-198120000D02*
X108585000Y-198120000D01*
%TO.N,Net-(C3-Pad2)*%
X174625000Y-183515000D02*
X172085000Y-180975000D01*
X172085000Y-180975000D02*
X172085000Y-168656000D01*
X172085000Y-168656000D02*
X172339000Y-168402000D01*
X172405000Y-168275000D02*
X172405000Y-162494000D01*
X172405000Y-162494000D02*
X174371000Y-160528000D01*
X174371000Y-160528000D02*
X174371000Y-157480000D01*
%TO.N,Net-(C3-Pad1)*%
X192405000Y-168275000D02*
X195326000Y-168275000D01*
X195326000Y-168275000D02*
X201803000Y-174752000D01*
X201930000Y-174625000D02*
X211328000Y-174625000D01*
X211328000Y-174625000D02*
X211455000Y-174752000D01*
D35*
%TO.N,Net-(C6-Pad1)*%
X314325000Y-169545000D02*
X308102000Y-163322000D01*
X308102000Y-163322000D02*
X298450000Y-163322000D01*
X298450000Y-163322000D02*
X286766000Y-175006000D01*
X311785000Y-143637000D02*
X311785000Y-68580000D01*
X283972000Y-171450000D02*
X311785000Y-143637000D01*
X283972000Y-171450000D02*
X283972000Y-171704000D01*
X283972000Y-171704000D02*
X287274000Y-175006000D01*
D34*
%TO.N,HT*%
X92710000Y-146050000D02*
X92710000Y-148590000D01*
X92710000Y-148590000D02*
X98425000Y-154305000D01*
X98425000Y-154305000D02*
X120650000Y-154305000D01*
X95250000Y-157480000D02*
X98425000Y-154305000D01*
X88900000Y-157480000D02*
X95250000Y-157480000D01*
D35*
X120650000Y-150876000D02*
X120650000Y-154686000D01*
X66548000Y-96774000D02*
X120650000Y-150876000D01*
X66548000Y-87376000D02*
X66548000Y-96774000D01*
X84074000Y-69850000D02*
X66548000Y-87376000D01*
X89535000Y-69850000D02*
X84074000Y-69850000D01*
D34*
%TO.N,Net-(F1-Pad1)*%
X387604000Y-205994000D02*
X382778000Y-205994000D01*
X389128000Y-204470000D02*
X387604000Y-205994000D01*
X389128000Y-198882000D02*
X389128000Y-204470000D01*
X387858000Y-197612000D02*
X389128000Y-198882000D01*
X387858000Y-77978000D02*
X387858000Y-197612000D01*
X377190000Y-67310000D02*
X387858000Y-77978000D01*
%TO.N,/L*%
X399542000Y-136304000D02*
X397416000Y-136304000D01*
X397416000Y-136304000D02*
X391414000Y-130302000D01*
X391414000Y-130302000D02*
X391414000Y-68072000D01*
X391414000Y-68072000D02*
X392430000Y-67056000D01*
%TO.N,NEUT*%
X363855000Y-183515000D02*
X366395000Y-183515000D01*
X366395000Y-183515000D02*
X379222000Y-170688000D01*
X379222000Y-170688000D02*
X379222000Y-119888000D01*
X379222000Y-119888000D02*
X379222000Y-113030000D01*
X379222000Y-113030000D02*
X376682000Y-110490000D01*
X376682000Y-110490000D02*
X373634000Y-110490000D01*
D32*
%TO.N,Net-(J2-Pad1)*%
X84455000Y-212725000D02*
X84455000Y-215900000D01*
X90932000Y-206248000D02*
X84455000Y-212725000D01*
X114173000Y-206248000D02*
X90932000Y-206248000D01*
X116205000Y-208280000D02*
X114173000Y-206248000D01*
X124460000Y-208280000D02*
X116205000Y-208280000D01*
%TO.N,Net-(J2-Pad3)*%
X187245000Y-215900000D02*
X187245000Y-204771000D01*
X187245000Y-204771000D02*
X185674000Y-203200000D01*
X175006000Y-203200000D02*
X166624000Y-211582000D01*
X166624000Y-211582000D02*
X159004000Y-211582000D01*
X159004000Y-211582000D02*
X151384000Y-203962000D01*
X151384000Y-203962000D02*
X142748000Y-203962000D01*
X142748000Y-203962000D02*
X142494000Y-203962000D01*
X142494000Y-203962000D02*
X138176000Y-208280000D01*
D34*
%TO.N,Net-(LS1-Pad1)*%
X102870000Y-86360000D02*
X113538000Y-86360000D01*
X113538000Y-86360000D02*
X140970000Y-58928000D01*
X140970000Y-58928000D02*
X140970000Y-36576000D01*
%TO.N,Net-(LS1-Pad2)*%
X92710000Y-86360000D02*
X94996000Y-84074000D01*
X94996000Y-84074000D02*
X111760000Y-84074000D01*
X111760000Y-84074000D02*
X138176000Y-57658000D01*
X138176000Y-57658000D02*
X138176000Y-44704000D01*
X138176000Y-44704000D02*
X138176000Y-43434000D01*
X138176000Y-43434000D02*
X131826000Y-37084000D01*
X131826000Y-37084000D02*
X121666000Y-37084000D01*
%TO.N,Net-(LS2-Pad2)*%
X227965000Y-36830000D02*
X238760000Y-36830000D01*
X238760000Y-36830000D02*
X243586000Y-41656000D01*
X243586000Y-41656000D02*
X243586000Y-44704000D01*
X243586000Y-44704000D02*
X241300000Y-46990000D01*
X241300000Y-46990000D02*
X231394000Y-46990000D01*
X231394000Y-46990000D02*
X194818000Y-83566000D01*
X194818000Y-83566000D02*
X194818000Y-86106000D01*
%TO.N,Net-(LS2-Pad1)*%
X205105000Y-85725000D02*
X205105000Y-76835000D01*
X205105000Y-76835000D02*
X232664000Y-49276000D01*
X232664000Y-49276000D02*
X242316000Y-49276000D01*
X242316000Y-49276000D02*
X247142000Y-44450000D01*
X247142000Y-44450000D02*
X247142000Y-36830000D01*
%TO.N,Net-(NE1-Pad1)*%
X363855000Y-198755000D02*
X363855000Y-210439000D01*
X363855000Y-210439000D02*
X363728000Y-210566000D01*
%TO.N,LINE*%
X366395000Y-210185000D02*
X368173000Y-210185000D01*
X368173000Y-210185000D02*
X375158000Y-203200000D01*
X375158000Y-203200000D02*
X383032000Y-203200000D01*
X375158000Y-197104000D02*
X375158000Y-203200000D01*
X382524000Y-189738000D02*
X375158000Y-197104000D01*
X382524000Y-104140000D02*
X382524000Y-189738000D01*
X378714000Y-100330000D02*
X382524000Y-104140000D01*
X373380000Y-100330000D02*
X378714000Y-100330000D01*
D32*
%TO.N,Net-(R1-Pad1)*%
X73025000Y-193675000D02*
X66040000Y-193675000D01*
X66040000Y-193675000D02*
X61595000Y-198120000D01*
X61595000Y-198120000D02*
X62230000Y-198755000D01*
%TO.N,Net-(R4-Pad1)*%
X88265000Y-183515000D02*
X95123000Y-183515000D01*
X95123000Y-183515000D02*
X101600000Y-189992000D01*
%TO.N,Net-(R6-Pad1)*%
X174625000Y-193675000D02*
X164973000Y-193675000D01*
X164973000Y-193675000D02*
X164846000Y-193548000D01*
D34*
%TO.N,VBUS*%
X189865000Y-157480000D02*
X197231000Y-157480000D01*
X197231000Y-157480000D02*
X202311000Y-152400000D01*
X202311000Y-152400000D02*
X224155000Y-152400000D01*
X201930000Y-152400000D02*
X202311000Y-152400000D01*
X194945000Y-145415000D02*
X201930000Y-152400000D01*
D35*
X193040000Y-68580000D02*
X185928000Y-68580000D01*
X185928000Y-68580000D02*
X172720000Y-81788000D01*
X172720000Y-81788000D02*
X172720000Y-111760000D01*
X172720000Y-111760000D02*
X195326000Y-134366000D01*
X195326000Y-134366000D02*
X214376000Y-134366000D01*
X214376000Y-134366000D02*
X224282000Y-144272000D01*
X224282000Y-144272000D02*
X224282000Y-152908000D01*
D32*
%TO.N,Net-(R9-Pad1)*%
X189865000Y-183515000D02*
X193040000Y-183515000D01*
X193040000Y-183515000D02*
X199517000Y-189992000D01*
X199517000Y-189992000D02*
X201803000Y-189992000D01*
D34*
%TO.N,Net-(R12-Pad1)*%
X83185000Y-180975000D02*
X83185000Y-178943000D01*
X83185000Y-178943000D02*
X80264000Y-176022000D01*
X80264000Y-176022000D02*
X75438000Y-176022000D01*
X179705000Y-180975000D02*
X184404000Y-176276000D01*
X184404000Y-176276000D02*
X185420000Y-176276000D01*
D32*
%TO.N,Net-(RV1-Pad2)*%
X81915000Y-213360000D02*
X81915000Y-215900000D01*
X73660000Y-205105000D02*
X81915000Y-213360000D01*
X73660000Y-196850000D02*
X73660000Y-205105000D01*
X76835000Y-193675000D02*
X73660000Y-196850000D01*
X76835000Y-190500000D02*
X76835000Y-193675000D01*
X74930000Y-188595000D02*
X76835000Y-190500000D01*
X73025000Y-188595000D02*
X74930000Y-188595000D01*
%TO.N,Net-(RV2-Pad2)*%
X184785000Y-207645000D02*
X184785000Y-216154000D01*
X176784000Y-199644000D02*
X184785000Y-207645000D01*
X177927000Y-194310000D02*
X176784000Y-195453000D01*
X176784000Y-195453000D02*
X176784000Y-199644000D01*
X177927000Y-191897000D02*
X177927000Y-194310000D01*
X174625000Y-188595000D02*
X177927000Y-191897000D01*
%TO.N,Net-(T1-Pad2)*%
X88265000Y-193675000D02*
X86995000Y-193675000D01*
X86995000Y-193675000D02*
X83820000Y-190500000D01*
X83820000Y-190500000D02*
X83820000Y-184150000D01*
X83820000Y-184150000D02*
X88265000Y-179705000D01*
X88265000Y-179705000D02*
X88265000Y-175895000D01*
X88265000Y-175895000D02*
X88265000Y-174625000D01*
X88265000Y-174625000D02*
X83820000Y-170180000D01*
X83820000Y-170180000D02*
X83820000Y-153670000D01*
X83820000Y-153670000D02*
X88900000Y-148590000D01*
X88900000Y-148590000D02*
X88900000Y-144780000D01*
X88900000Y-144780000D02*
X91440000Y-142240000D01*
X91440000Y-142240000D02*
X96520000Y-142240000D01*
X96520000Y-142240000D02*
X97790000Y-143510000D01*
X97790000Y-143510000D02*
X97790000Y-146050000D01*
%TO.N,Net-(T2-Pad2)*%
X189865000Y-193675000D02*
X187706000Y-193675000D01*
X187706000Y-193675000D02*
X185801000Y-191770000D01*
X185801000Y-191770000D02*
X185801000Y-183388000D01*
X185801000Y-183388000D02*
X188849000Y-180340000D01*
X188849000Y-180340000D02*
X188849000Y-170180000D01*
X188849000Y-170180000D02*
X185293000Y-166624000D01*
X185293000Y-166624000D02*
X184531000Y-165862000D01*
X184531000Y-165862000D02*
X184531000Y-155448000D01*
X184531000Y-155448000D02*
X191643000Y-148336000D01*
X191643000Y-148336000D02*
X191643000Y-143256000D01*
X191643000Y-143256000D02*
X193929000Y-140970000D01*
X193929000Y-140970000D02*
X199009000Y-140970000D01*
X199009000Y-140970000D02*
X200025000Y-141986000D01*
X200025000Y-141986000D02*
X200025000Y-145542000D01*
D34*
%TO.N,Net-(T3-Pad4)*%
X319405000Y-184785000D02*
X319405000Y-187325000D01*
X319405000Y-187325000D02*
X323342000Y-191262000D01*
X323342000Y-191262000D02*
X331216000Y-191262000D01*
X331216000Y-191262000D02*
X373380000Y-149098000D01*
X373380000Y-149098000D02*
X373380000Y-140970000D01*
%TO.N,Net-(T3-Pad7)*%
X324485000Y-169545000D02*
X344551000Y-169545000D01*
X344551000Y-169545000D02*
X362204000Y-151892000D01*
X362204000Y-151892000D02*
X362204000Y-128778000D01*
X362204000Y-128778000D02*
X365252000Y-125730000D01*
X365252000Y-125730000D02*
X373380000Y-125730000D01*
D32*
%TO.N,Net-(C4-Pad1)*%
X179705000Y-196215000D02*
X182245000Y-198755000D01*
X182245000Y-198755000D02*
X203200000Y-198755000D01*
X203200000Y-198755000D02*
X203835000Y-198120000D01*
X203835000Y-198120000D02*
X207645000Y-198120000D01*
X207645000Y-198120000D02*
X216535000Y-207010000D01*
%TD*%
M02*
